<svg xmlns="http://www.w3.org/2000/svg" width="512" height="512" style="enable-background:new 0 0 512 512" xml:space="preserve"><g xmlns="http://www.w3.org/2000/svg" fill="#fff"><path d="M497 406.003h-16v-45c0-8.284-6.716-15-15-15H316c-24.508 0-46.305 11.818-60 30.052-13.695-18.234-35.492-30.052-60-30.052H46c-8.284 0-15 6.716-15 15v45H15c-8.284 0-15 6.716-15 15s6.716 15 15 15h141.785c30.529 0 54.438 6.765 71.062 20.107 16.337 13.112 39.794 13.253 56.305 0 16.625-13.342 40.534-20.107 71.063-20.107H497c8.284 0 15-6.716 15-15s-6.716-15-15-15zm-340.215 0H61v-30h135c24.813 0 45 20.187 45 45v7.543c-21.493-14.949-49.767-22.543-84.215-22.543zM271 428.546v-7.543c0-24.813 20.187-45 45-45h135v30h-95.785c-34.447 0-62.722 7.594-84.215 22.543zM41.879 135.426 151 166.603v74.4c0 5.682 3.21 10.875 8.292 13.417l66.334 33.167a81.976 81.976 0 0 1 20.008 14.077c5.798 5.544 14.933 5.544 20.731 0a81.976 81.976 0 0 1 20.008-14.077l66.334-33.167a15 15 0 0 0 8.292-13.417v-74.4l30-8.571v112.971c0 8.284 6.716 15 15 15s15-6.716 15-15V149.46l49.121-14.034c14.446-4.127 14.471-24.711 0-28.846l-210-60a14.989 14.989 0 0 0-8.241 0l-210 60c-14.446 4.127-14.471 24.711 0 28.846zM331 231.732l-58.043 29.021A111.987 111.987 0 0 0 256 271.207a112.083 112.083 0 0 0-16.958-10.455L181 231.732v-56.558l70.879 20.251c2.683.766 5.537.773 8.241 0L331 175.174zM256 76.603l155.399 44.4L256 165.403l-155.399-44.4z" data-original="#000000"/></g></svg>