<svg xmlns="http://www.w3.org/2000/svg" width="512" height="512" viewBox="0 0 496.456 496" style="enable-background:new 0 0 512 512" xml:space="preserve"><g fill="#fff"><path xmlns="http://www.w3.org/2000/svg" d="m328.105 127.773-71.335-21.402c-5.356-1.598-10.86-2.16-16.313-1.96v-.184h-86.703L0 53.133.465 269.18l44.137 22.062 26.132-63.887 38.176 15.274 9.899-24.738 14.336 14.336-13.375 13.378c-4.649 4.649-7.313 11.079-7.313 17.657 0 13.46 10.734 24.406 24.086 24.879.465 13.046 10.953 23.535 24 24 .465 13.046 10.953 23.535 24 24 .48 13.351 11.418 24.086 24.883 24.086 6.574 0 13.008-2.664 17.652-7.313l13.379-13.375 5.375 5.375c4.648 4.649 11.078 7.313 17.656 7.313 13.465 0 24.407-10.735 24.88-24.086 13.046-.465 23.534-10.954 24-24 13.046-.465 23.534-10.954 24-24 13.35-.48 24.089-11.418 24.089-24.88 0-1.136-.184-2.257-.336-3.386l11.48-11.48 9.278 18.562 50.25-25.129 30.367 57.977 34.961-23.297V61.738zM36.312 269.211l-19.863-9.934-.402-183.953 87.664 29.137zM100 221.828l-23.215-9.281 42.145-103.031 22.933 7.625zm28.457 41.434c0-2.364.95-4.672 2.621-6.348l14.067-14.062a9.03 9.03 0 0 1 6.343-2.625c4.946 0 8.969 4.027 8.969 8.968a9.03 9.03 0 0 1-2.625 6.344l-14.062 14.066a9.026 9.026 0 0 1-6.344 2.622c-4.946 0-8.969-4.024-8.969-8.965zm24 24c0-2.364.95-4.672 2.621-6.348l14.067-14.062a9.03 9.03 0 0 1 6.343-2.625c4.946 0 8.969 4.027 8.969 8.968a9.03 9.03 0 0 1-2.625 6.344l-14.062 14.066a9.026 9.026 0 0 1-6.344 2.622c-4.946 0-8.969-4.024-8.969-8.965zm24 24c0-2.364.95-4.672 2.621-6.348l14.067-14.062a9.03 9.03 0 0 1 6.343-2.625c4.946 0 8.969 4.027 8.969 8.968a9.03 9.03 0 0 1-2.625 6.344l-14.062 14.066a9.026 9.026 0 0 1-6.344 2.622c-4.946 0-8.969-4.024-8.969-8.965zm53.375 16.277-14.062 14.066a9.026 9.026 0 0 1-6.344 2.622c-4.946 0-8.969-4.024-8.969-8.965 0-2.364.95-4.672 2.621-6.348l14.067-14.062a9.03 9.03 0 0 1 6.343-2.625c4.946 0 8.969 4.027 8.969 8.968a9.03 9.03 0 0 1-2.625 6.344zm105.656-63.312c-2.36 0-4.672-.95-6.343-2.622l-67.032-67.035-11.312 11.313 67.031 67.031a9.04 9.04 0 0 1 2.625 6.348c0 4.941-4.023 8.965-8.969 8.965-2.36 0-4.672-.95-6.343-2.622l-67.032-67.035-11.312 11.313 67.031 67.031a9.04 9.04 0 0 1 2.625 6.348c0 4.941-4.023 8.965-8.969 8.965-2.36 0-4.672-.95-6.343-2.622l-67.032-67.035-11.312 11.313 67.031 67.031a9.04 9.04 0 0 1 2.625 6.348c0 4.941-4.023 8.965-8.969 8.965-2.36 0-4.672-.95-6.343-2.622l-9.024-9.027c.16-1.117.336-2.238.336-3.383 0-13.465-10.738-24.406-24.09-24.879-.465-13.046-10.953-23.535-24-24-.465-13.046-10.953-23.535-24-24-.48-13.351-11.414-24.09-24.879-24.09-1.136 0-2.258.184-3.383.337l-22.84-22.84 32.606-81.496h47.274l-29.375 29.378c-4.723 4.711-7.313 10.985-7.313 17.657 0 13.765 11.2 24.965 24.969 24.965 6.574 0 13.008-2.664 17.652-7.313l21.195-21.2c4.336-4.32 11.973-4.487 16.489-.35l18.703 17.144a90.357 90.357 0 0 0 20.512 14.144l53.855 54.262a9.04 9.04 0 0 1 2.625 6.348c0 4.941-4.023 8.965-8.969 8.965zm16.969-27.313-32.883-33.133c2.938.278 5.899.446 8.883.446v-16a74.074 74.074 0 0 1-50.176-19.52l-18.707-17.137c-10.558-9.695-28.469-9.308-38.605.84l-21.192 21.195a9.092 9.092 0 0 1-6.351 2.622c-4.946 0-8.969-4.024-8.969-8.965a8.91 8.91 0 0 1 2.621-6.348l30.496-30.492c8.961-8.961 22.418-12.371 34.594-8.723l70.672 21.2 41.207 82.425zm35.574.578-48.504-97.015 35.426-13.899 48.75 93.074zm92.426 22.457-13.043 8.696-77.476-147.938 90.519-35.504zM95.719 349.652l11.312-11.316 11.313 11.316-11.313 11.313zM126.238 376.719l8.895-13.301 13.293 8.887-8.89 13.3zM161.453 397.328l6.125-14.781 14.781 6.125-6.125 14.781zM200.027 410.688l3.125-15.684 15.68 3.125-3.125 15.684zM348.473 44.137l8.894-13.301 13.293 8.887-8.894 13.3zM314.535 27.79l6.125-14.782 14.781 6.125-6.125 14.781zM278.078 18.363l3.117-15.695 15.684 3.117-3.117 15.692zm0 0" data-original="#000000"/><path xmlns="http://www.w3.org/2000/svg" d="M400.457 24.227h-16v40h-40v16h56zM112.457 304.227h-48v48h16v-32h32zM248.457 16.227h8v-16h-8c-52.648 0-102.883 19.714-141.45 55.503l10.888 11.73c35.601-33.038 81.96-51.233 130.562-51.233zM248.457 400.227h-8v16h8c73.129 0 139.55-37.32 177.688-99.832l-13.657-8.329c-35.207 57.707-96.527 92.16-164.031 92.16zm0 0" data-original="#000000"/></g></svg>