<svg xmlns="http://www.w3.org/2000/svg" width="512" height="512" viewBox="0 0 496 496" style="enable-background:new 0 0 512 512" xml:space="preserve"><path fill="#fff" data-original="#000000" d="M192 40h112v16H192zM192 72h112v16H192zM192 104h112v16H192zM192 136h112v16H192z" xmlns="http://www.w3.org/2000/svg"/><path d="M448 376.64V344c0-4.424-3.576-8-8-8H256v-32h48c3.032 0 5.8-1.712 7.16-4.424l32-64c1.24-2.48 1.112-5.424-.352-7.784S338.776 224 336 224h-80v-40h72c4.424 0 8-3.576 8-8V88h24v24c0 4.424 3.576 8 8 8h96c4.424 0 8-3.576 8-8V48c0-4.424-3.576-8-8-8h-96c-4.424 0-8 3.576-8 8v24h-24V16c0-4.424-3.576-8-8-8H168c-4.424 0-8 3.576-8 8v44.688l-18.344-18.344-11.312 11.312L148.688 72H72v16h76.688l-18.344 18.344 11.312 11.312L160 99.312V176c0 4.424 3.576 8 8 8h72v40h-48a8.009 8.009 0 0 0-7.16 4.424l-32 64c-1.24 2.48-1.112 5.424.352 7.784S157.224 304 160 304h80v32H56c-4.424 0-8 3.576-8 8v32.64C20.912 380.544 0 403.848 0 432c0 30.872 25.128 56 56 56s56-25.128 56-56c0-28.152-20.912-51.456-48-55.36V352h112v24.64c-27.088 3.904-48 27.208-48 55.36 0 30.872 25.128 56 56 56s56-25.128 56-56c0-28.152-20.912-51.456-48-55.36V352h112v24.64c-27.088 3.904-48 27.208-48 55.36 0 30.872 25.128 56 56 56s56-25.128 56-56c0-28.152-20.912-51.456-48-55.36V352h112v24.64c-27.088 3.904-48 27.208-48 55.36 0 30.872 25.128 56 56 56s56-25.128 56-56c0-28.152-20.912-51.456-48-55.36zM376 56h80v48h-80V56zM96 432c0 22.056-17.944 40-40 40s-40-17.944-40-40 17.944-40 40-40 40 17.944 40 40zm128 0c0 22.056-17.944 40-40 40s-40-17.944-40-40 17.944-40 40-40 40 17.944 40 40zm-48-264V24h144v144H176zm-3.056 120 24-48h126.112l-24 48H172.944zM352 432c0 22.056-17.944 40-40 40s-40-17.944-40-40 17.944-40 40-40 40 17.944 40 40zm88 40c-22.056 0-40-17.944-40-40s17.944-40 40-40 40 17.944 40 40-17.944 40-40 40z" fill="#fff" data-original="#000000" xmlns="http://www.w3.org/2000/svg"/><path fill="#fff" data-original="#000000" d="M408 136h16v16h-16zM408 168h16v16h-16zM408 200h16v16h-16zM408 232h16v16h-16zM408 264h16v16h-16zM376 264h16v16h-16zM344 264h16v16h-16zM40 72h16v16H40zM8 72h16v16H8zM208 256h80v16h-80z" xmlns="http://www.w3.org/2000/svg"/></svg>