<svg xmlns="http://www.w3.org/2000/svg" width="512" height="512" style="enable-background:new 0 0 512 512" xml:space="preserve"><path d="m15.851 107.291-4.328-2.5a7.492 7.492 0 0 0-10.239 2.745 7.502 7.502 0 0 0 2.744 10.245l4.328 2.5a7.493 7.493 0 0 0 10.239-2.745 7.502 7.502 0 0 0-2.744-10.245zM51.348 127.791l-8.874-5.125a7.49 7.49 0 0 0-10.239 2.746 7.5 7.5 0 0 0 2.745 10.244l8.874 5.125a7.495 7.495 0 0 0 10.24-2.746 7.503 7.503 0 0 0-2.746-10.244zM335.316 291.789l-8.874-5.125a7.49 7.49 0 0 0-10.239 2.746 7.5 7.5 0 0 0 2.745 10.244l8.873 5.125a7.495 7.495 0 0 0 10.24-2.746 7.5 7.5 0 0 0-2.745-10.244zM406.308 332.789l-8.874-5.125a7.492 7.492 0 0 0-10.24 2.746 7.5 7.5 0 0 0 2.745 10.244l8.874 5.125a7.495 7.495 0 0 0 10.24-2.746 7.5 7.5 0 0 0-2.745-10.244zM370.812 312.289l-8.874-5.125a7.49 7.49 0 0 0-10.24 2.746 7.5 7.5 0 0 0 2.745 10.244l8.874 5.125a7.495 7.495 0 0 0 10.24-2.746 7.5 7.5 0 0 0-2.745-10.244zM299.82 271.289l-8.874-5.125c-3.585-2.074-8.169-.842-10.24 2.746a7.5 7.5 0 0 0 2.745 10.244l8.874 5.125a7.495 7.495 0 0 0 10.24-2.746 7.5 7.5 0 0 0-2.745-10.244zM477.3 373.788l-8.874-5.125a7.49 7.49 0 0 0-10.24 2.746 7.5 7.5 0 0 0 2.745 10.244l8.874 5.125a7.495 7.495 0 0 0 10.24-2.746 7.5 7.5 0 0 0-2.745-10.244zM508.25 391.663l-4.328-2.5a7.49 7.49 0 0 0-10.239 2.745 7.502 7.502 0 0 0 2.744 10.245l4.328 2.5a7.493 7.493 0 0 0 10.239-2.745 7.5 7.5 0 0 0-2.744-10.245zM15.85 301.067l-4.328-2.499a7.494 7.494 0 0 0-10.239 2.747 7.502 7.502 0 0 0 2.746 10.245l4.328 2.499a7.493 7.493 0 0 0 10.239-2.747 7.502 7.502 0 0 0-2.746-10.245zM292.096 460.604l-8.633-4.985a7.493 7.493 0 0 0-10.239 2.747 7.502 7.502 0 0 0 2.745 10.245l8.633 4.985a7.494 7.494 0 0 0 10.239-2.747 7.503 7.503 0 0 0-2.745-10.245zM326.626 480.546l-8.632-4.985a7.494 7.494 0 0 0-10.239 2.747 7.502 7.502 0 0 0 2.745 10.245l8.632 4.985a7.495 7.495 0 0 0 10.239-2.747 7.502 7.502 0 0 0-2.745-10.245zM50.381 321.009l-8.632-4.985a7.494 7.494 0 0 0-10.239 2.747 7.502 7.502 0 0 0 2.745 10.245l8.632 4.985a7.495 7.495 0 0 0 10.239-2.747 7.502 7.502 0 0 0-2.745-10.245zM356.852 498.004l-4.328-2.5a7.492 7.492 0 0 0-10.239 2.745 7.501 7.501 0 0 0 2.744 10.245l4.328 2.5a7.491 7.491 0 0 0 10.239-2.745 7.501 7.501 0 0 0-2.744-10.245zM510.994 107.536a7.494 7.494 0 0 0-10.239-2.745l-4.328 2.5a7.502 7.502 0 0 0 3.754 13.996 7.455 7.455 0 0 0 3.741-1.006l4.328-2.5a7.502 7.502 0 0 0 2.744-10.245zM160.581 309.91a7.49 7.49 0 0 0-10.239-2.746l-8.874 5.125a7.502 7.502 0 0 0 3.753 13.996 7.46 7.46 0 0 0 3.741-1.006l8.874-5.125a7.502 7.502 0 0 0 2.745-10.244zM125.085 330.41a7.49 7.49 0 0 0-10.239-2.746l-8.874 5.125a7.502 7.502 0 0 0 3.753 13.996 7.46 7.46 0 0 0 3.741-1.006l8.874-5.125a7.502 7.502 0 0 0 2.745-10.244zM54.092 371.409a7.493 7.493 0 0 0-10.24-2.746l-8.874 5.125a7.502 7.502 0 0 0 3.754 13.996c1.272 0 2.56-.324 3.741-1.006l8.874-5.125a7.502 7.502 0 0 0 2.745-10.244zM480.045 125.412a7.493 7.493 0 0 0-10.24-2.746l-8.874 5.125a7.502 7.502 0 0 0 3.754 13.996 7.46 7.46 0 0 0 3.741-1.006l8.874-5.125a7.502 7.502 0 0 0 2.745-10.244zM196.077 289.41a7.493 7.493 0 0 0-10.239-2.746l-8.874 5.125a7.502 7.502 0 0 0 3.753 13.996 7.46 7.46 0 0 0 3.741-1.006l8.874-5.125a7.502 7.502 0 0 0 2.745-10.244zM231.573 268.91a7.49 7.49 0 0 0-10.239-2.746l-8.874 5.125a7.502 7.502 0 0 0-2.745 10.244 7.486 7.486 0 0 0 10.239 2.746l8.874-5.125a7.502 7.502 0 0 0 2.745-10.244zM18.596 391.908a7.493 7.493 0 0 0-10.239-2.745l-4.328 2.5a7.502 7.502 0 0 0 3.754 13.996 7.455 7.455 0 0 0 3.741-1.006l4.328-2.5a7.502 7.502 0 0 0 2.744-10.245zM510.995 301.315c-2.07-3.587-6.656-4.818-10.239-2.747l-4.328 2.499a7.502 7.502 0 0 0 3.753 13.997c1.271 0 2.56-.323 3.74-1.005l4.328-2.499a7.503 7.503 0 0 0 2.746-10.245zM204.524 478.308a7.494 7.494 0 0 0-10.239-2.747l-8.632 4.985a7.502 7.502 0 0 0 3.754 13.997c1.271 0 2.56-.324 3.74-1.005l8.632-4.985a7.502 7.502 0 0 0 2.745-10.245z" fill="#fff" data-original="#000000" xmlns="http://www.w3.org/2000/svg"/><path d="m441.803 353.288-2.904-1.677 4.593-2.653a7.502 7.502 0 0 0 2.745-10.245 7.492 7.492 0 0 0-10.239-2.747l-7.461 4.309V320c0-4.143-3.356-7.5-7.496-7.5s-7.496 3.357-7.496 7.5v28.933l-12.072 6.972-.005.003-8.632 4.985-.004.002-129.205 74.615v-3.511c0-4.143-3.356-7.5-7.496-7.5s-7.496 3.357-7.496 7.5v3.511l-149.91-86.577V223.667c0-4.143-3.356-7.5-7.496-7.5a7.497 7.497 0 0 0-7.496 7.5V340.27l-7.455-4.305a7.493 7.493 0 0 0-10.239 2.747 7.502 7.502 0 0 0 2.745 10.245l4.593 2.653-2.904 1.677a7.502 7.502 0 0 0 3.754 13.996c1.272 0 2.56-.324 3.741-1.006l8.874-5.125c.492-.284.936-.62 1.337-.99l164.206 94.831.017.008c.215.124.44.227.666.328.076.034.148.077.224.108.199.081.404.142.609.206.107.033.211.077.319.106.209.055.424.088.638.125.104.018.207.047.311.061a7.464 7.464 0 0 0 3.817-.502c.171-.07.334-.163.501-.246.131-.066.264-.119.393-.193l2.298-1.327c.01-.006.02-.009.029-.015l8.632-4.985c.012-.007.023-.016.035-.022l25.843-14.925a.124.124 0 0 0 .02-.01l8.633-4.986.014-.009 25.87-14.94a.061.061 0 0 0 .014-.007l8.632-4.986.002-.001 25.888-14.95.007-.003 8.633-4.985.011-.007 49.653-28.675c.402.371.846.707 1.339.992l8.874 5.125a7.495 7.495 0 0 0 10.24-2.746 7.5 7.5 0 0 0-2.744-10.244zM239.055 458.365c-2.069-3.586-6.655-4.818-10.239-2.747l-8.633 4.985a7.502 7.502 0 0 0 3.754 13.997c1.271 0 2.56-.323 3.74-1.005l8.633-4.985a7.502 7.502 0 0 0 2.745-10.245zM480.769 318.77a7.495 7.495 0 0 0-10.239-2.747l-8.632 4.985a7.502 7.502 0 0 0 3.754 13.997c1.271 0 2.56-.324 3.74-1.005l8.632-4.985a7.503 7.503 0 0 0 2.745-10.245zM169.993 498.249a7.494 7.494 0 0 0-10.239-2.745l-4.328 2.5A7.502 7.502 0 0 0 159.18 512a7.455 7.455 0 0 0 3.741-1.006l4.328-2.5a7.502 7.502 0 0 0 2.744-10.245zM508.268 201.522l-4.321-2.513a7.497 7.497 0 0 0-10.247 2.718 7.502 7.502 0 0 0 2.716 10.253l4.321 2.512a7.493 7.493 0 0 0 10.247-2.717 7.502 7.502 0 0 0-2.716-10.253zM236.715 43.629l-8.621-5.013a7.495 7.495 0 0 0-10.247 2.716 7.5 7.5 0 0 0 2.713 10.252l8.621 5.013a7.493 7.493 0 0 0 10.248-2.715 7.503 7.503 0 0 0-2.714-10.253zM202.233 23.58l-8.621-5.013a7.494 7.494 0 0 0-10.247 2.716 7.501 7.501 0 0 0 2.713 10.252l8.621 5.013a7.493 7.493 0 0 0 10.248-2.715 7.503 7.503 0 0 0-2.714-10.253zM478.087 183.973l-8.62-5.013a7.495 7.495 0 0 0-10.247 2.716 7.503 7.503 0 0 0 2.714 10.253l8.62 5.013a7.493 7.493 0 0 0 10.248-2.715 7.503 7.503 0 0 0-2.715-10.254z" fill="#fff" data-original="#000000" xmlns="http://www.w3.org/2000/svg"/><path d="m443.604 163.924-7.6-4.418 5.799-3.349a7.502 7.502 0 0 0 2.745-10.244 7.491 7.491 0 0 0-10.24-2.746l-8.874 5.125a7.448 7.448 0 0 0-3.032 3.304l-162.5-94.578c-.022-.013-.046-.021-.068-.034a7.608 7.608 0 0 0-.824-.409l-.031-.011a7.528 7.528 0 0 0-1.715-.469c-.079-.012-.158-.027-.237-.036a7.45 7.45 0 0 0-.876-.057h-.033c-.297 0-.589.023-.877.057-.079.009-.157.024-.236.036-.23.035-.455.079-.678.134-.074.019-.148.036-.221.057-.284.08-.563.171-.832.283l-.015.005c-.288.12-.565.26-.833.414-.02.012-.042.019-.062.031L89.876 151.595a7.458 7.458 0 0 0-3.032-3.304l-8.874-5.125a7.49 7.49 0 0 0-10.239 2.746 7.5 7.5 0 0 0 2.745 10.244l5.78 3.338-7.642 4.428a7.504 7.504 0 0 0-2.73 10.249 7.492 7.492 0 0 0 10.243 2.731l7.607-4.408v19.339c0 4.143 3.356 7.5 7.496 7.5a7.497 7.497 0 0 0 7.496-7.5v-19.362l145.527 84.046a7.447 7.447 0 0 0 4.384 7.599V399.25c0 4.143 3.356 7.5 7.496 7.5s7.496-3.357 7.496-7.5V264.121a7.448 7.448 0 0 0 4.397-7.611l145.502-84.024.018-.011V287.5c0 4.143 3.356 7.5 7.496 7.5s7.496-3.357 7.496-7.5V172.512l7.534 4.38a7.491 7.491 0 0 0 10.247-2.716 7.502 7.502 0 0 0-2.715-10.252zM256.135 246.06l-149.952-86.6 142.941-82.81.166-.096a7.491 7.491 0 0 0 6.843 4.448 7.493 7.493 0 0 0 6.948-4.693l.582.338c.307.179.621.331.941.461l24.157 14.059c.243.184.495.36.765.517l8.62 5.012c.25.146.507.266.766.38l24.417 14.21c.216.159.441.309.678.447l8.621 5.013c.18.104.366.185.55.272l24.832 14.453c.156.107.313.215.48.312l8.621 5.012c.103.06.212.102.317.157l25.351 14.754c.066.041.126.087.193.126l8.62 5.013c.034.02.07.032.104.052l4.4 2.561-149.961 86.602zM167.751 3.531l-4.321-2.513a7.493 7.493 0 0 0-10.247 2.716 7.499 7.499 0 0 0 2.713 10.252l4.321 2.513a7.493 7.493 0 0 0 10.248-2.715 7.503 7.503 0 0 0-2.714-10.253zM18.308 201.741a7.493 7.493 0 0 0-10.243-2.731l-4.324 2.506a7.503 7.503 0 0 0 3.763 13.991 7.453 7.453 0 0 0 3.75-1.011l4.324-2.506a7.503 7.503 0 0 0 2.73-10.249zM329.701 21.287a7.493 7.493 0 0 0-10.243-2.731l-8.65 5.012a7.501 7.501 0 0 0 3.764 13.991 7.447 7.447 0 0 0 3.749-1.011l8.65-5.012a7.502 7.502 0 0 0 2.73-10.249zM295.103 41.337a7.493 7.493 0 0 0-10.243-2.731l-8.65 5.013a7.504 7.504 0 0 0-2.73 10.249 7.49 7.49 0 0 0 10.243 2.731l8.65-5.013a7.504 7.504 0 0 0 2.73-10.249zM52.908 181.691a7.493 7.493 0 0 0-10.243-2.731l-8.65 5.013a7.503 7.503 0 0 0 3.763 13.991 7.453 7.453 0 0 0 3.75-1.011l8.65-5.013a7.503 7.503 0 0 0 2.73-10.249zM359.975 3.741a7.493 7.493 0 0 0-10.243-2.729l-4.324 2.507a7.501 7.501 0 0 0 3.764 13.99 7.458 7.458 0 0 0 3.751-1.012l4.324-2.507a7.501 7.501 0 0 0 2.728-10.249z" fill="#fff" data-original="#000000" xmlns="http://www.w3.org/2000/svg"/><path d="M256.133 216a7.497 7.497 0 0 0-7.496 7.5v10c0 4.143 3.356 7.5 7.496 7.5s7.496-3.357 7.496-7.5v-10c0-4.142-3.356-7.5-7.496-7.5zM256.133 96.001a7.497 7.497 0 0 0-7.496 7.5v10c0 4.143 3.356 7.5 7.496 7.5s7.496-3.357 7.496-7.5v-10c0-4.143-3.356-7.5-7.496-7.5zM256.133 136.001a7.497 7.497 0 0 0-7.496 7.5v10c0 4.143 3.356 7.5 7.496 7.5s7.496-3.357 7.496-7.5v-10c0-4.143-3.356-7.5-7.496-7.5zM256.133 176.001a7.497 7.497 0 0 0-7.496 7.5v10c0 4.143 3.356 7.5 7.496 7.5s7.496-3.357 7.496-7.5v-10c0-4.143-3.356-7.5-7.496-7.5z" fill="#fff" data-original="#000000" xmlns="http://www.w3.org/2000/svg"/></svg>