<?xml version="1.0"?>
<svg xmlns="http://www.w3.org/2000/svg" xmlns:xlink="http://www.w3.org/1999/xlink" xmlns:svgjs="http://svgjs.com/svgjs" version="1.1" width="512" height="512" x="0" y="0" viewBox="0 0 512 512" style="enable-background:new 0 0 512 512" xml:space="preserve" class=""><g>
<g xmlns="http://www.w3.org/2000/svg">
	<g>
		<path d="M15.851,107.291l-4.328-2.5c-3.585-2.073-8.17-0.841-10.239,2.745c-2.07,3.588-0.841,8.175,2.744,10.245l4.328,2.5    c1.181,0.683,2.469,1.006,3.741,1.006c2.59,0,5.11-1.346,6.498-3.751C20.665,113.948,19.436,109.361,15.851,107.291z" fill="#ffffff" data-original="#000000" style=""/>
	</g>
</g>
<g xmlns="http://www.w3.org/2000/svg">
	<g>
		<path d="M51.348,127.791l-8.874-5.125c-3.585-2.074-8.17-0.842-10.239,2.746c-2.07,3.587-0.841,8.174,2.745,10.244l8.874,5.125    c1.181,0.683,2.469,1.006,3.741,1.006c2.59,0,5.11-1.346,6.499-3.752C56.162,134.448,54.933,129.861,51.348,127.791z" fill="#ffffff" data-original="#000000" style=""/>
	</g>
</g>
<g xmlns="http://www.w3.org/2000/svg">
	<g>
		<path d="M335.316,291.789l-8.874-5.125c-3.586-2.074-8.17-0.842-10.239,2.746c-2.07,3.587-0.841,8.174,2.745,10.244l8.873,5.125    c1.181,0.683,2.469,1.006,3.741,1.006c2.59,0,5.11-1.346,6.499-3.752C340.131,298.446,338.902,293.859,335.316,291.789z" fill="#ffffff" data-original="#000000" style=""/>
	</g>
</g>
<g xmlns="http://www.w3.org/2000/svg">
	<g>
		<path d="M406.308,332.789l-8.874-5.125c-3.585-2.073-8.17-0.842-10.24,2.746c-2.07,3.587-0.841,8.174,2.745,10.244l8.874,5.125    c1.18,0.683,2.469,1.006,3.741,1.006c2.59,0,5.11-1.346,6.499-3.752C411.123,339.446,409.894,334.859,406.308,332.789z" fill="#ffffff" data-original="#000000" style=""/>
	</g>
</g>
<g xmlns="http://www.w3.org/2000/svg">
	<g>
		<path d="M370.812,312.289l-8.874-5.125c-3.586-2.074-8.169-0.843-10.24,2.746c-2.07,3.587-0.841,8.174,2.745,10.244l8.874,5.125    c1.181,0.683,2.469,1.006,3.741,1.006c2.59,0,5.11-1.346,6.499-3.752C375.627,318.946,374.398,314.359,370.812,312.289z" fill="#ffffff" data-original="#000000" style=""/>
	</g>
</g>
<g xmlns="http://www.w3.org/2000/svg">
	<g>
		<path d="M299.82,271.289l-8.874-5.125c-3.585-2.074-8.169-0.842-10.24,2.746c-2.07,3.587-0.841,8.174,2.745,10.244l8.874,5.125    c1.18,0.683,2.469,1.006,3.741,1.006c2.59,0,5.11-1.346,6.499-3.752C304.635,277.946,303.406,273.359,299.82,271.289z" fill="#ffffff" data-original="#000000" style=""/>
	</g>
</g>
<g xmlns="http://www.w3.org/2000/svg">
	<g>
		<path d="M477.3,373.788l-8.874-5.125c-3.586-2.074-8.169-0.843-10.24,2.746c-2.07,3.587-0.841,8.174,2.745,10.244l8.874,5.125    c1.181,0.683,2.469,1.006,3.741,1.006c2.59,0,5.11-1.346,6.499-3.752C482.115,380.445,480.886,375.858,477.3,373.788z" fill="#ffffff" data-original="#000000" style=""/>
	</g>
</g>
<g xmlns="http://www.w3.org/2000/svg">
	<g>
		<path d="M508.25,391.663l-4.328-2.5c-3.586-2.074-8.169-0.842-10.239,2.745c-2.07,3.588-0.841,8.175,2.744,10.245l4.328,2.5    c1.18,0.683,2.469,1.006,3.741,1.006c2.59,0,5.11-1.346,6.498-3.751C513.064,398.32,511.836,393.733,508.25,391.663z" fill="#ffffff" data-original="#000000" style=""/>
	</g>
</g>
<g xmlns="http://www.w3.org/2000/svg">
	<g>
		<path d="M15.85,301.067l-4.328-2.499c-3.586-2.071-8.169-0.84-10.239,2.747c-2.069,3.588-0.84,8.175,2.746,10.245l4.328,2.499    c1.18,0.682,2.468,1.005,3.74,1.005c2.591,0,5.111-1.346,6.499-3.752C20.666,307.725,19.436,303.138,15.85,301.067z" fill="#ffffff" data-original="#000000" style=""/>
	</g>
</g>
<g xmlns="http://www.w3.org/2000/svg">
	<g>
		<path d="M292.096,460.604l-8.633-4.985c-3.585-2.071-8.17-0.841-10.239,2.747c-2.07,3.588-0.84,8.174,2.745,10.245l8.633,4.985    c1.181,0.682,2.468,1.005,3.74,1.005c2.59,0,5.111-1.346,6.499-3.752C296.91,467.261,295.681,462.675,292.096,460.604z" fill="#ffffff" data-original="#000000" style=""/>
	</g>
</g>
<g xmlns="http://www.w3.org/2000/svg">
	<g>
		<path d="M326.626,480.546l-8.632-4.985c-3.583-2.07-8.17-0.841-10.239,2.747c-2.07,3.587-0.841,8.174,2.745,10.245l8.632,4.985    c1.18,0.682,2.468,1.005,3.74,1.005c2.59,0,5.11-1.346,6.499-3.752C331.441,487.204,330.212,482.617,326.626,480.546z" fill="#ffffff" data-original="#000000" style=""/>
	</g>
</g>
<g xmlns="http://www.w3.org/2000/svg">
	<g>
		<path d="M50.381,321.009l-8.632-4.985c-3.584-2.07-8.17-0.841-10.239,2.747c-2.07,3.586-0.841,8.173,2.745,10.245l8.632,4.985    c1.18,0.682,2.468,1.005,3.74,1.005c2.59,0,5.11-1.346,6.499-3.752C55.196,327.667,53.967,323.08,50.381,321.009z" fill="#ffffff" data-original="#000000" style=""/>
	</g>
</g>
<g xmlns="http://www.w3.org/2000/svg">
	<g>
		<path d="M356.852,498.004l-4.328-2.5c-3.585-2.071-8.17-0.843-10.239,2.745c-2.07,3.587-0.842,8.174,2.744,10.245l4.328,2.5    c1.18,0.682,2.469,1.006,3.741,1.006c2.59,0,5.11-1.345,6.498-3.751C361.666,504.662,360.438,500.075,356.852,498.004z" fill="#ffffff" data-original="#000000" style=""/>
	</g>
</g>
<g xmlns="http://www.w3.org/2000/svg">
	<g>
		<path d="M510.994,107.536c-2.069-3.588-6.656-4.814-10.239-2.745l-4.328,2.5c-3.585,2.07-4.814,6.657-2.744,10.245    c1.388,2.406,3.908,3.751,6.498,3.751c1.272,0,2.561-0.324,3.741-1.006l4.328-2.5    C511.835,115.711,513.064,111.124,510.994,107.536z" fill="#ffffff" data-original="#000000" style=""/>
	</g>
</g>
<g xmlns="http://www.w3.org/2000/svg">
	<g>
		<path d="M160.581,309.91c-2.07-3.589-6.654-4.818-10.239-2.746l-8.874,5.125c-3.585,2.07-4.814,6.657-2.745,10.244    c1.387,2.407,3.907,3.752,6.498,3.752c1.271,0,2.56-0.324,3.741-1.006l8.874-5.125C161.421,318.084,162.65,313.497,160.581,309.91    z" fill="#ffffff" data-original="#000000" style=""/>
	</g>
</g>
<g xmlns="http://www.w3.org/2000/svg">
	<g>
		<path d="M125.085,330.41c-2.07-3.589-6.654-4.818-10.239-2.746l-8.874,5.125c-3.585,2.07-4.814,6.657-2.745,10.244    c1.387,2.407,3.907,3.752,6.498,3.752c1.271,0,2.56-0.324,3.741-1.006l8.874-5.125    C125.925,338.584,127.154,333.997,125.085,330.41z" fill="#ffffff" data-original="#000000" style=""/>
	</g>
</g>
<g xmlns="http://www.w3.org/2000/svg">
	<g>
		<path d="M54.092,371.409c-2.07-3.589-6.654-4.817-10.24-2.746l-8.874,5.125c-3.585,2.07-4.814,6.657-2.745,10.244    c1.388,2.407,3.908,3.752,6.499,3.752c1.272,0,2.56-0.324,3.741-1.006l8.874-5.125C54.932,379.583,56.161,374.996,54.092,371.409z    " fill="#ffffff" data-original="#000000" style=""/>
	</g>
</g>
<g xmlns="http://www.w3.org/2000/svg">
	<g>
		<path d="M480.045,125.412c-2.071-3.589-6.655-4.817-10.24-2.746l-8.874,5.125c-3.585,2.07-4.814,6.657-2.745,10.244    c1.389,2.407,3.908,3.752,6.499,3.752c1.271,0,2.56-0.324,3.741-1.006l8.874-5.125    C480.885,133.586,482.114,128.999,480.045,125.412z" fill="#ffffff" data-original="#000000" style=""/>
	</g>
</g>
<g xmlns="http://www.w3.org/2000/svg">
	<g>
		<path d="M196.077,289.41c-2.07-3.588-6.654-4.817-10.239-2.746l-8.874,5.125c-3.585,2.07-4.814,6.657-2.745,10.244    c1.387,2.407,3.907,3.752,6.498,3.752c1.271,0,2.56-0.324,3.741-1.006l8.874-5.125    C196.917,297.584,198.146,292.997,196.077,289.41z" fill="#ffffff" data-original="#000000" style=""/>
	</g>
</g>
<g xmlns="http://www.w3.org/2000/svg">
	<g>
		<path d="M231.573,268.91c-2.07-3.589-6.654-4.818-10.239-2.746l-8.874,5.125c-3.585,2.07-4.814,6.657-2.745,10.244    c1.387,2.408,3.907,3.752,6.498,3.752c1.271,0,2.56-0.324,3.741-1.006l8.874-5.125    C232.413,277.084,233.642,272.497,231.573,268.91z" fill="#ffffff" data-original="#000000" style=""/>
	</g>
</g>
<g xmlns="http://www.w3.org/2000/svg">
	<g>
		<path d="M18.596,391.908c-2.07-3.588-6.656-4.816-10.239-2.745l-4.328,2.5c-3.585,2.07-4.814,6.657-2.744,10.245    c1.388,2.406,3.908,3.751,6.498,3.751c1.272,0,2.561-0.324,3.741-1.006l4.328-2.5C19.437,400.083,20.666,395.496,18.596,391.908z" fill="#ffffff" data-original="#000000" style=""/>
	</g>
</g>
<g xmlns="http://www.w3.org/2000/svg">
	<g>
		<path d="M510.995,301.315c-2.07-3.587-6.656-4.818-10.239-2.747l-4.328,2.499c-3.586,2.07-4.815,6.657-2.746,10.245    c1.388,2.407,3.909,3.752,6.499,3.752c1.271,0,2.56-0.323,3.74-1.005l4.328-2.499C511.835,309.49,513.063,304.903,510.995,301.315    z" fill="#ffffff" data-original="#000000" style=""/>
	</g>
</g>
<g xmlns="http://www.w3.org/2000/svg">
	<g>
		<path d="M204.524,478.308c-2.07-3.589-6.655-4.816-10.239-2.747l-8.632,4.985c-3.586,2.071-4.815,6.658-2.745,10.245    c1.388,2.407,3.908,3.752,6.499,3.752c1.271,0,2.56-0.324,3.74-1.005l8.632-4.985    C205.365,486.482,206.594,481.895,204.524,478.308z" fill="#ffffff" data-original="#000000" style=""/>
	</g>
</g>
<g xmlns="http://www.w3.org/2000/svg">
	<g>
		<path d="M441.803,353.288l-2.904-1.677l4.593-2.653c3.585-2.071,4.815-6.657,2.745-10.245c-2.07-3.588-6.655-4.819-10.239-2.747    l-7.461,4.309V320c0-4.143-3.356-7.5-7.496-7.5s-7.496,3.357-7.496,7.5v28.933l-12.072,6.972    c-0.002,0.001-0.004,0.002-0.005,0.003l-8.632,4.985c-0.001,0.001-0.002,0.001-0.004,0.002L263.627,435.51v-3.511    c0-4.143-3.356-7.5-7.496-7.5s-7.496,3.357-7.496,7.5v3.511l-149.91-86.577V223.667c0-4.143-3.356-7.5-7.496-7.5    c-4.14,0-7.496,3.357-7.496,7.5V340.27l-7.455-4.305c-3.586-2.071-8.17-0.841-10.239,2.747c-2.07,3.588-0.84,8.174,2.745,10.245    l4.593,2.653l-2.904,1.677c-3.585,2.07-4.814,6.657-2.745,10.244c1.388,2.407,3.908,3.752,6.499,3.752    c1.272,0,2.56-0.324,3.741-1.006l8.874-5.125c0.492-0.284,0.936-0.62,1.337-0.99l164.206,94.831    c0.005,0.003,0.011,0.005,0.017,0.008c0.215,0.124,0.44,0.227,0.666,0.328c0.076,0.034,0.148,0.077,0.224,0.108    c0.199,0.081,0.404,0.142,0.609,0.206c0.107,0.033,0.211,0.077,0.319,0.106c0.209,0.055,0.424,0.088,0.638,0.125    c0.104,0.018,0.207,0.047,0.311,0.061c0.321,0.042,0.646,0.063,0.971,0.063c0.957,0,1.924-0.185,2.846-0.565    c0.171-0.07,0.334-0.163,0.501-0.246c0.131-0.066,0.264-0.119,0.393-0.193l2.298-1.327c0.01-0.006,0.02-0.009,0.029-0.015    l8.632-4.985c0.012-0.007,0.023-0.016,0.035-0.022l25.843-14.925c0.007-0.003,0.014-0.006,0.02-0.01l8.633-4.986    c0.005-0.003,0.009-0.006,0.014-0.009l25.87-14.94c0.005-0.002,0.01-0.004,0.014-0.007l8.632-4.986    c0.001,0,0.001-0.001,0.002-0.001l25.888-14.95c0.002-0.001,0.005-0.002,0.007-0.003l8.633-4.985    c0.004-0.002,0.007-0.005,0.011-0.007l49.653-28.675c0.402,0.371,0.846,0.707,1.339,0.992l8.874,5.125    c1.181,0.683,2.469,1.006,3.741,1.006c2.59,0,5.11-1.346,6.499-3.752C446.618,359.945,445.389,355.358,441.803,353.288z" fill="#ffffff" data-original="#000000" style=""/>
	</g>
</g>
<g xmlns="http://www.w3.org/2000/svg">
	<g>
		<path d="M239.055,458.365c-2.069-3.586-6.655-4.818-10.239-2.747l-8.633,4.985c-3.585,2.071-4.815,6.657-2.745,10.245    c1.388,2.406,3.908,3.752,6.499,3.752c1.271,0,2.56-0.323,3.74-1.005l8.633-4.985    C239.895,466.539,241.125,461.953,239.055,458.365z" fill="#ffffff" data-original="#000000" style=""/>
	</g>
</g>
<g xmlns="http://www.w3.org/2000/svg">
	<g>
		<path d="M480.769,318.77c-2.07-3.589-6.654-4.815-10.239-2.747l-8.632,4.985c-3.586,2.071-4.815,6.658-2.745,10.245    c1.388,2.407,3.908,3.752,6.499,3.752c1.271,0,2.56-0.324,3.74-1.005l8.632-4.985C481.609,326.944,482.839,322.357,480.769,318.77    z" fill="#ffffff" data-original="#000000" style=""/>
	</g>
</g>
<g xmlns="http://www.w3.org/2000/svg">
	<g>
		<path d="M169.993,498.249c-2.069-3.587-6.655-4.815-10.239-2.745l-4.328,2.5c-3.585,2.071-4.814,6.658-2.744,10.245    c1.388,2.406,3.908,3.751,6.498,3.751c1.272,0,2.561-0.324,3.741-1.006l4.328-2.5    C170.834,506.423,172.063,501.836,169.993,498.249z" fill="#ffffff" data-original="#000000" style=""/>
	</g>
</g>
<g xmlns="http://www.w3.org/2000/svg">
	<g>
		<path d="M508.268,201.522l-4.321-2.513c-3.578-2.079-8.167-0.862-10.247,2.718c-2.08,3.581-0.864,8.172,2.716,10.253l4.321,2.512    c1.185,0.688,2.48,1.016,3.759,1.016c2.583,0,5.097-1.338,6.488-3.733C513.064,208.194,511.848,203.603,508.268,201.522z" fill="#ffffff" data-original="#000000" style=""/>
	</g>
</g>
<g xmlns="http://www.w3.org/2000/svg">
	<g>
		<path d="M236.715,43.629l-8.621-5.013c-3.578-2.08-8.167-0.865-10.247,2.716c-2.082,3.58-0.866,8.171,2.713,10.252l8.621,5.013    c1.185,0.689,2.481,1.017,3.76,1.017c2.583,0,5.096-1.337,6.488-3.732C241.509,50.301,240.294,45.71,236.715,43.629z" fill="#ffffff" data-original="#000000" style=""/>
	</g>
</g>
<g xmlns="http://www.w3.org/2000/svg">
	<g>
		<path d="M202.233,23.58l-8.621-5.013c-3.578-2.081-8.167-0.865-10.247,2.716c-2.08,3.581-0.866,8.171,2.713,10.252l8.621,5.013    c1.185,0.689,2.481,1.017,3.76,1.017c2.583,0,5.096-1.337,6.488-3.732C207.027,30.252,205.812,25.661,202.233,23.58z" fill="#ffffff" data-original="#000000" style=""/>
	</g>
</g>
<g xmlns="http://www.w3.org/2000/svg">
	<g>
		<path d="M478.087,183.973l-8.62-5.013c-3.578-2.08-8.167-0.865-10.247,2.716c-2.08,3.581-0.865,8.172,2.714,10.253l8.62,5.013    c1.185,0.689,2.481,1.017,3.76,1.017c2.583,0,5.096-1.337,6.488-3.732C482.882,190.645,481.667,186.054,478.087,183.973z" fill="#ffffff" data-original="#000000" style=""/>
	</g>
</g>
<g xmlns="http://www.w3.org/2000/svg">
	<g>
		<path d="M443.604,163.924l-7.6-4.418l5.799-3.349c3.585-2.07,4.814-6.657,2.745-10.244c-2.071-3.59-6.655-4.818-10.24-2.746    l-8.874,5.125c-1.378,0.795-2.404,1.964-3.032,3.304l-162.5-94.578c-0.022-0.013-0.046-0.021-0.068-0.034    c-0.266-0.151-0.539-0.29-0.824-0.409c-0.01-0.004-0.021-0.007-0.031-0.011c-0.264-0.108-0.538-0.199-0.816-0.277    c-0.075-0.021-0.15-0.04-0.225-0.058c-0.221-0.055-0.446-0.099-0.674-0.134c-0.079-0.012-0.158-0.027-0.237-0.036    c-0.288-0.034-0.579-0.057-0.876-0.057c-0.011,0-0.022,0-0.033,0c-0.297,0-0.589,0.023-0.877,0.057    c-0.079,0.009-0.157,0.024-0.236,0.036c-0.23,0.035-0.455,0.079-0.678,0.134c-0.074,0.019-0.148,0.036-0.221,0.057    c-0.284,0.08-0.563,0.171-0.832,0.283c-0.005,0.002-0.01,0.003-0.015,0.005c-0.288,0.12-0.565,0.26-0.833,0.414    c-0.02,0.012-0.042,0.019-0.062,0.031L89.876,151.595c-0.628-1.339-1.654-2.508-3.032-3.304l-8.874-5.125    c-3.585-2.074-8.17-0.842-10.239,2.746c-2.07,3.587-0.841,8.174,2.745,10.244l5.78,3.338l-7.642,4.428    c-3.582,2.076-4.804,6.665-2.73,10.249c1.39,2.401,3.907,3.742,6.493,3.742c1.275,0,2.567-0.325,3.75-1.011l7.607-4.408v19.339    c0,4.143,3.356,7.5,7.496,7.5c4.14,0,7.496-3.357,7.496-7.5v-19.362l145.527,84.046c-0.157,1.517,0.137,3.095,0.957,4.517    c0.819,1.42,2.037,2.459,3.427,3.082V399.25c0,4.143,3.356,7.5,7.496,7.5s7.496-3.357,7.496-7.5V264.121    c1.395-0.622,2.618-1.663,3.44-3.088c0.822-1.424,1.116-3.004,0.957-4.523l145.502-84.024c0.018-0.011-0.001,0,0.018-0.011V287.5    c0,4.143,3.356,7.5,7.496,7.5s7.496-3.357,7.496-7.5V172.512l7.534,4.38c1.185,0.689,2.48,1.017,3.759,1.017    c2.583,0,5.097-1.337,6.488-3.733C448.399,170.595,447.183,166.005,443.604,163.924z M256.135,246.06l-149.952-86.6l142.941-82.81    l0.166-0.096c1.169,2.62,3.79,4.448,6.843,4.448c3.147,0,5.837-1.942,6.948-4.693l0.582,0.338    c0.307,0.179,0.621,0.331,0.941,0.461l24.157,14.059c0.243,0.184,0.495,0.36,0.765,0.517l8.62,5.012    c0.25,0.146,0.507,0.266,0.766,0.38l24.417,14.21c0.216,0.159,0.441,0.309,0.678,0.447l8.621,5.013    c0.18,0.104,0.366,0.185,0.55,0.272l24.832,14.453c0.156,0.107,0.313,0.215,0.48,0.312l8.621,5.012    c0.103,0.06,0.212,0.102,0.317,0.157l25.351,14.754c0.066,0.041,0.126,0.087,0.193,0.126l8.62,5.013    c0.034,0.02,0.07,0.032,0.104,0.052l4.4,2.561L256.135,246.06z" fill="#ffffff" data-original="#000000" style=""/>
	</g>
</g>
<g xmlns="http://www.w3.org/2000/svg">
	<g>
		<path d="M167.751,3.531l-4.321-2.513c-3.578-2.082-8.167-0.865-10.247,2.716c-2.082,3.58-0.867,8.171,2.713,10.252l4.321,2.513    c1.185,0.689,2.481,1.017,3.76,1.017c2.583,0,5.096-1.337,6.488-3.732C172.545,10.203,171.33,5.612,167.751,3.531z" fill="#ffffff" data-original="#000000" style=""/>
	</g>
</g>
<g xmlns="http://www.w3.org/2000/svg">
	<g>
		<path d="M18.308,201.741c-2.076-3.585-6.661-4.807-10.243-2.731l-4.324,2.506c-3.583,2.076-4.804,6.665-2.73,10.249    c1.39,2.401,3.906,3.742,6.493,3.742c1.275,0,2.567-0.325,3.75-1.011l4.324-2.506C19.161,209.914,20.382,205.325,18.308,201.741z" fill="#ffffff" data-original="#000000" style=""/>
	</g>
</g>
<g xmlns="http://www.w3.org/2000/svg">
	<g>
		<path d="M329.701,21.287c-2.075-3.585-6.661-4.807-10.243-2.731l-8.65,5.012c-3.583,2.075-4.805,6.664-2.73,10.249    c1.39,2.401,3.907,3.742,6.494,3.742c1.275,0,2.567-0.325,3.749-1.011l8.65-5.012C330.553,29.461,331.776,24.872,329.701,21.287z" fill="#ffffff" data-original="#000000" style=""/>
	</g>
</g>
<g xmlns="http://www.w3.org/2000/svg">
	<g>
		<path d="M295.103,41.337c-2.075-3.585-6.662-4.807-10.243-2.731l-8.65,5.013c-3.582,2.076-4.804,6.665-2.73,10.249    c1.389,2.401,3.906,3.742,6.493,3.742c1.275,0,2.567-0.325,3.75-1.011l8.65-5.013C295.955,49.51,297.177,44.921,295.103,41.337z" fill="#ffffff" data-original="#000000" style=""/>
	</g>
</g>
<g xmlns="http://www.w3.org/2000/svg">
	<g>
		<path d="M52.908,181.691c-2.075-3.585-6.661-4.807-10.243-2.731l-8.65,5.013c-3.583,2.076-4.804,6.665-2.73,10.249    c1.389,2.402,3.906,3.742,6.493,3.742c1.275,0,2.567-0.325,3.75-1.011l8.65-5.013C53.761,189.864,54.982,185.275,52.908,181.691z" fill="#ffffff" data-original="#000000" style=""/>
	</g>
</g>
<g xmlns="http://www.w3.org/2000/svg">
	<g>
		<path d="M359.975,3.741c-2.075-3.584-6.662-4.805-10.243-2.729l-4.324,2.507c-3.582,2.076-4.804,6.665-2.728,10.249    c1.389,2.4,3.905,3.741,6.492,3.741c1.275,0,2.568-0.326,3.751-1.012l4.324-2.507C360.829,11.914,362.051,7.325,359.975,3.741z" fill="#ffffff" data-original="#000000" style=""/>
	</g>
</g>
<g xmlns="http://www.w3.org/2000/svg">
	<g>
		<path d="M256.133,216c-4.14,0-7.496,3.357-7.496,7.5v10c0,4.143,3.356,7.5,7.496,7.5s7.496-3.357,7.496-7.5v-10    C263.629,219.358,260.273,216,256.133,216z" fill="#ffffff" data-original="#000000" style=""/>
	</g>
</g>
<g xmlns="http://www.w3.org/2000/svg">
	<g>
		<path d="M256.133,96.001c-4.14,0-7.496,3.357-7.496,7.5v10c0,4.143,3.356,7.5,7.496,7.5s7.496-3.357,7.496-7.5v-10    C263.629,99.358,260.273,96.001,256.133,96.001z" fill="#ffffff" data-original="#000000" style=""/>
	</g>
</g>
<g xmlns="http://www.w3.org/2000/svg">
	<g>
		<path d="M256.133,136.001c-4.14,0-7.496,3.357-7.496,7.5v10c0,4.143,3.356,7.5,7.496,7.5s7.496-3.357,7.496-7.5v-10    C263.629,139.358,260.273,136.001,256.133,136.001z" fill="#ffffff" data-original="#000000" style=""/>
	</g>
</g>
<g xmlns="http://www.w3.org/2000/svg">
	<g>
		<path d="M256.133,176.001c-4.14,0-7.496,3.357-7.496,7.5v10c0,4.143,3.356,7.5,7.496,7.5s7.496-3.357,7.496-7.5v-10    C263.629,179.358,260.273,176.001,256.133,176.001z" fill="#ffffff" data-original="#000000" style=""/>
	</g>
</g>
<g xmlns="http://www.w3.org/2000/svg">
</g>
<g xmlns="http://www.w3.org/2000/svg">
</g>
<g xmlns="http://www.w3.org/2000/svg">
</g>
<g xmlns="http://www.w3.org/2000/svg">
</g>
<g xmlns="http://www.w3.org/2000/svg">
</g>
<g xmlns="http://www.w3.org/2000/svg">
</g>
<g xmlns="http://www.w3.org/2000/svg">
</g>
<g xmlns="http://www.w3.org/2000/svg">
</g>
<g xmlns="http://www.w3.org/2000/svg">
</g>
<g xmlns="http://www.w3.org/2000/svg">
</g>
<g xmlns="http://www.w3.org/2000/svg">
</g>
<g xmlns="http://www.w3.org/2000/svg">
</g>
<g xmlns="http://www.w3.org/2000/svg">
</g>
<g xmlns="http://www.w3.org/2000/svg">
</g>
<g xmlns="http://www.w3.org/2000/svg">
</g>
</g></svg>
