<svg xmlns="http://www.w3.org/2000/svg" width="512" height="512" style="enable-background:new 0 0 512 512" xml:space="preserve"><g fill="#fff" xmlns="http://www.w3.org/2000/svg"><path data-original="#000000" d="M210.059 497h-28.078v-19.333h-15V512h58.078v-34.333h-15zM143.116 497h-28.077v-19.333h-15V512h58.077v-34.333h-15zM92.757 82.167H232.34v-45h10.709V117h15V37.167h5.666V0H61.375v37.167h31.382v45zm124.583-15H107.757v-30H217.34v30zm-140.965-45V15h172.34v7.167H76.375z"/><path data-original="#000000" d="M151.359 42h15v15h-15zM176.359 42h35v15h-35zM126.359 42h15v15h-15zM155.049 303.97h15v15h-15zM155.049 328.97h15v15h-15zM155.049 258.97h15v35h-15z"/><path d="m251.785 166.509-7.761-7.761H205.7c16.207-12.792 26.64-32.59 26.64-54.791 0-3.459-.262-6.959-.778-10.402l-14.834 2.225c.406 2.71.612 5.461.612 8.178 0 30.212-24.579 54.791-54.791 54.791-30.211 0-54.791-24.579-54.791-54.791 0-2.717.206-5.468.612-8.178l-14.834-2.225a70.283 70.283 0 0 0-.778 10.402c0 22.201 10.433 42 26.64 54.791H81.073l-23.83 23.83L40.2 366.352h59.838v98.815h125.02v-98.815h59.838l-17.042-183.774-16.069-16.069zM65.776 253h15.272v18.145H64.093L65.776 253zm-5.084 56.355h20.356V327.5H59.002l1.69-18.145zm39.346 41.996H56.656l.821-8.851h38.572v-48.145H61.94l.761-8.211h33.346V238H67.166l4.511-48.645 12.749-12.749 15.611 14.181v160.564zM266.095 327.5h-22.046v-18.145h20.357l1.689 18.145zm-5.091-56.355h-16.955V253h15.273l1.682 18.145zm-78.681-97.396-19.774 17.962-19.774-17.962h39.548zm-50.274 276.418h-17.01V204.413l17.01 15.451v230.303zm46 0h-31V233.49l15.5 14.08 15.5-14.08v216.677zm32.01 0h-17.01V219.864l17.01-15.451v245.754zm-47.51-222.862-58.96-53.557h16.875l42.084 38.229 42.084-38.229h16.875l-58.958 53.557zm62.509 124.047V190.787l15.611-14.181 12.75 12.75L257.93 238h-28.882v48.145h33.346l.762 8.21h-34.108V342.5h38.572l.821 8.852h-43.383zM288.049 0v132.916h36.597v43.85l43.85-43.85H471.8V0H288.049zm74.233 117.916-22.637 22.637v-22.637h-36.597V15h153.75v102.916h-94.516z" data-original="#000000"/><path d="M392.503 72.553c0 6.937-5.644 12.58-12.58 12.58-6.938 0-12.581-5.644-12.581-12.58V38.532h-26.547v15h11.547v19.022c0 15.208 12.373 27.58 27.581 27.58s27.58-12.372 27.58-27.58V53.532h11.548v-15h-26.548v34.021z" data-original="#000000"/></g></svg>