<?xml version="1.0"?>
<svg xmlns="http://www.w3.org/2000/svg" xmlns:xlink="http://www.w3.org/1999/xlink" xmlns:svgjs="http://svgjs.com/svgjs" version="1.1" width="512" height="512" x="0" y="0" viewBox="0 0 512 512" style="enable-background:new 0 0 512 512" xml:space="preserve"><g>
<g xmlns="http://www.w3.org/2000/svg">
	<g>
		<g>
			<polygon points="210.059,497 181.981,497 181.981,477.667 166.981,477.667 166.981,512 225.059,512 225.059,477.667      210.059,477.667    " fill="#ffffff" data-original="#000000" style=""/>
			<polygon points="143.116,497 115.039,497 115.039,477.667 100.039,477.667 100.039,512 158.116,512 158.116,477.667      143.116,477.667    " fill="#ffffff" data-original="#000000" style=""/>
			<path d="M92.757,82.167H232.34v-45h10.709V117h15V37.167h5.666V0H61.375v37.167h31.382V82.167z M217.34,67.167H107.757v-30     H217.34V67.167z M76.375,22.167V15h172.34v7.167H76.375z" fill="#ffffff" data-original="#000000" style=""/>
			<rect x="151.359" y="42" width="15" height="15" fill="#ffffff" data-original="#000000" style=""/>
			<rect x="176.359" y="42" width="35" height="15" fill="#ffffff" data-original="#000000" style=""/>
			<rect x="126.359" y="42" width="15" height="15" fill="#ffffff" data-original="#000000" style=""/>
			<rect x="155.049" y="303.97" width="15" height="15" fill="#ffffff" data-original="#000000" style=""/>
			<rect x="155.049" y="328.97" width="15" height="15" fill="#ffffff" data-original="#000000" style=""/>
			<rect x="155.049" y="258.97" width="15" height="35" fill="#ffffff" data-original="#000000" style=""/>
			<path d="M251.785,166.509l-7.761-7.761H205.7c16.207-12.792,26.64-32.59,26.64-54.791c0-3.459-0.262-6.959-0.778-10.402     l-14.834,2.225c0.406,2.71,0.612,5.461,0.612,8.178c0,30.212-24.579,54.791-54.791,54.791c-30.211,0-54.791-24.579-54.791-54.791     c0-2.717,0.206-5.468,0.612-8.178l-14.834-2.225c-0.517,3.443-0.778,6.943-0.778,10.402c0,22.201,10.433,42,26.64,54.791H81.073     l-23.83,23.83L40.2,366.352h59.838v98.815h125.02v-98.815h59.838l-17.042-183.774L251.785,166.509z M65.776,253h15.272v18.145     H64.093L65.776,253z M60.692,309.355h20.356V327.5H59.002L60.692,309.355z M100.038,351.351H56.656l0.821-8.851h38.572v-48.145     H61.94l0.761-8.211h33.346V238H67.166l4.511-48.645l12.749-12.749l15.611,14.181V351.351z M266.095,327.5h-22.046v-18.145h20.357     L266.095,327.5z M261.004,271.145h-16.955V253h15.273L261.004,271.145z M182.323,173.749l-19.774,17.962l-19.774-17.962H182.323z      M132.049,450.167h-17.01V204.413l17.01,15.451V450.167z M178.049,450.167h-31V233.49l15.5,14.08l15.5-14.08V450.167z      M210.059,450.167h-17.01V219.864l17.01-15.451V450.167z M162.549,227.305l-58.96-53.557h16.875l42.084,38.229l42.084-38.229     h16.875L162.549,227.305z M225.058,351.352V190.787l15.611-14.181l12.75,12.75L257.93,238h-28.882v48.145h33.346l0.762,8.21     h-34.108V342.5h38.572l0.821,8.852H225.058z" fill="#ffffff" data-original="#000000" style=""/>
			<path d="M288.049,0v132.916h36.597v43.85l43.85-43.85h103.304V0H288.049z M362.282,117.916l-22.637,22.637v-22.637h-36.597V15     h153.75v102.916H362.282z" fill="#ffffff" data-original="#000000" style=""/>
			<path d="M392.503,72.553c0,6.937-5.644,12.58-12.58,12.58c-6.938,0-12.581-5.644-12.581-12.58V38.532h-26.547v15h11.547v19.022     c0,15.208,12.373,27.58,27.581,27.58s27.58-12.372,27.58-27.58V53.532h11.548v-15h-26.548V72.553z" fill="#ffffff" data-original="#000000" style=""/>
		</g>
	</g>
</g>
<g xmlns="http://www.w3.org/2000/svg">
</g>
<g xmlns="http://www.w3.org/2000/svg">
</g>
<g xmlns="http://www.w3.org/2000/svg">
</g>
<g xmlns="http://www.w3.org/2000/svg">
</g>
<g xmlns="http://www.w3.org/2000/svg">
</g>
<g xmlns="http://www.w3.org/2000/svg">
</g>
<g xmlns="http://www.w3.org/2000/svg">
</g>
<g xmlns="http://www.w3.org/2000/svg">
</g>
<g xmlns="http://www.w3.org/2000/svg">
</g>
<g xmlns="http://www.w3.org/2000/svg">
</g>
<g xmlns="http://www.w3.org/2000/svg">
</g>
<g xmlns="http://www.w3.org/2000/svg">
</g>
<g xmlns="http://www.w3.org/2000/svg">
</g>
<g xmlns="http://www.w3.org/2000/svg">
</g>
<g xmlns="http://www.w3.org/2000/svg">
</g>
</g></svg>
