<?xml version="1.0"?>
<svg xmlns="http://www.w3.org/2000/svg" xmlns:xlink="http://www.w3.org/1999/xlink" xmlns:svgjs="http://svgjs.com/svgjs" version="1.1" width="512" height="512" x="0" y="0" viewBox="0 0 512 512" style="enable-background:new 0 0 512 512" xml:space="preserve" class=""><g><path xmlns="http://www.w3.org/2000/svg" d="M266.8,400h-16a8,8,0,1,0,0,16h16a8,8,0,0,0,0-16Z" fill="#ffffff" data-original="#000000" style="" class=""/><path xmlns="http://www.w3.org/2000/svg" d="M210.8,400H82.8a8,8,0,1,0,0,16h128a8,8,0,0,0,0-16Z" fill="#ffffff" data-original="#000000" style="" class=""/><path xmlns="http://www.w3.org/2000/svg" d="M130.8,352h16a8,8,0,0,0,0-16h-16a8,8,0,1,0,0,16Z" fill="#ffffff" data-original="#000000" style="" class=""/><path xmlns="http://www.w3.org/2000/svg" d="M186.8,352h128a8,8,0,0,0,0-16h-128a8,8,0,1,0,0,16Z" fill="#ffffff" data-original="#000000" style="" class=""/><path xmlns="http://www.w3.org/2000/svg" d="M424.542,282.7a22.977,22.977,0,0,0-13.484-28.78L361.217,111.647a8,8,0,0,0-15.35.867,46,46,0,0,1-4.665,12.131L227.726,64.921a8,8,0,0,0-7.037-.2l-176,80a8,8,0,0,0-.4,14.37L48,161.031V208H40a8,8,0,0,0-8,8v8a23.9,23.9,0,0,0,6.131,16A23.9,23.9,0,0,0,32,256v24a8,8,0,0,0,8,8H72a8,8,0,0,0,8-8V256a23.9,23.9,0,0,0-6.131-16A23.9,23.9,0,0,0,80,224v-8a8,8,0,0,0-8-8H64V169.412l32,16.762V304H74.8a8,8,0,0,0-8,8v58.249A40,40,0,0,0,80,448H344a8,8,0,0,0,8-8V376a8,8,0,0,0-5.532-7.607,40.07,40.07,0,0,0,4.617-7.59l38.839,83.843a7.993,7.993,0,0,0,8.776,4.493l3.334-.644a96.8,96.8,0,0,0,43.908-20.981l8.9-4.122a65.5,65.5,0,0,0,32.485-33.168,8,8,0,0,0-.534-7.436ZM64,224a8,8,0,0,1-16,0Zm0,48H48V256a8,8,0,0,1,16,0Zm273.849,41.2a7.05,7.05,0,0,1-5.926-12.795l67.82-31.417a7.051,7.051,0,0,1,5.928,12.8h0ZM276.587,161.915a70.061,70.061,0,0,1,29.924-13.861L362.38,268.661l-29.924,13.862Zm117.542,92.074c-.372.15-.743.309-1.111.48l-16.12,7.467L328.709,157.909a62.548,62.548,0,0,0,20.852-17.082,8.009,8.009,0,0,0,1.329-1.743c.685-.933,1.353-1.88,1.987-2.85ZM223.742,80.9l107.165,56.4a46.1,46.1,0,0,1-8.933,6.063l-3.474-7.5a8.005,8.005,0,0,0-8.153-4.588A85.977,85.977,0,0,0,261.313,154a8,8,0,0,0-1.773,9.186l16.149,34.86-59.781,32.88L107.825,174.306l-.036-.019L66.213,152.509ZM212.288,247.087a8,8,0,0,0,7.567-.077l62.575-34.416,36.117,77.967a22.951,22.951,0,0,0-5.3,8.3c-.106.287-.178.58-.272.869A399.983,399.983,0,0,1,112,297.918V194.555ZM82.8,320h52.227a8.062,8.062,0,0,0,1.06-.078,416.031,416.031,0,0,0,79.922,7.754A415.951,415.951,0,0,0,295.534,320H314.8c.416,0,.826.029,1.239.051a22.946,22.946,0,0,0,18.11,9.779A23.978,23.978,0,0,1,314.8,368H82.8V352h16a8,8,0,0,0,0-16h-16ZM80,432a24,24,0,0,1,0-48H336v16H298.8a8,8,0,0,0,0,16H336v16Zm321.789.194-49.956-107.84,29.925-13.863,49.975,107.885A80.811,80.811,0,0,1,401.789,432.194Zm46.328-23.32-2.6,1.2-49.247-106.31L412.4,296.3c.457-.212.891-.459,1.33-.7l57.148,91.884A49.517,49.517,0,0,1,448.117,408.874Z" fill="#ffffff" data-original="#000000" style="" class=""/></g></svg>
