<svg xmlns="http://www.w3.org/2000/svg" width="512" height="512" style="enable-background:new 0 0 512 512" xml:space="preserve"><g fill="#fff"><path xmlns="http://www.w3.org/2000/svg" d="M266.8 400h-16a8 8 0 1 0 0 16h16a8 8 0 0 0 0-16ZM210.8 400h-128a8 8 0 1 0 0 16h128a8 8 0 0 0 0-16ZM130.8 352h16a8 8 0 0 0 0-16h-16a8 8 0 1 0 0 16ZM186.8 352h128a8 8 0 0 0 0-16h-128a8 8 0 1 0 0 16Z" data-original="#000000"/><path xmlns="http://www.w3.org/2000/svg" d="M424.542 282.7a22.977 22.977 0 0 0-13.484-28.78l-49.841-142.273a8 8 0 0 0-15.35.867 46 46 0 0 1-4.665 12.131L227.726 64.921a8 8 0 0 0-7.037-.2l-176 80a8 8 0 0 0-.4 14.37l3.711 1.94V208h-8a8 8 0 0 0-8 8v8a23.9 23.9 0 0 0 6.131 16A23.9 23.9 0 0 0 32 256v24a8 8 0 0 0 8 8h32a8 8 0 0 0 8-8v-24a23.9 23.9 0 0 0-6.131-16A23.9 23.9 0 0 0 80 224v-8a8 8 0 0 0-8-8h-8v-38.588l32 16.762V304H74.8a8 8 0 0 0-8 8v58.249A40 40 0 0 0 80 448h264a8 8 0 0 0 8-8v-64a8 8 0 0 0-5.532-7.607 40.07 40.07 0 0 0 4.617-7.59l38.839 83.843a7.993 7.993 0 0 0 8.776 4.493l3.334-.644a96.8 96.8 0 0 0 43.908-20.981l8.9-4.122a65.5 65.5 0 0 0 32.485-33.168 8 8 0 0 0-.534-7.436ZM64 224a8 8 0 0 1-16 0Zm0 48H48v-16a8 8 0 0 1 16 0Zm273.849 41.2a7.05 7.05 0 0 1-5.926-12.795l67.82-31.417a7.051 7.051 0 0 1 5.928 12.8Zm-61.262-151.285a70.061 70.061 0 0 1 29.924-13.861l55.869 120.607-29.924 13.862Zm117.542 92.074c-.372.15-.743.309-1.111.48l-16.12 7.467-48.189-104.027a62.548 62.548 0 0 0 20.852-17.082 8.009 8.009 0 0 0 1.329-1.743 63.881 63.881 0 0 0 1.987-2.85ZM223.742 80.9l107.165 56.4a46.1 46.1 0 0 1-8.933 6.063l-3.474-7.5a8.005 8.005 0 0 0-8.153-4.588A85.977 85.977 0 0 0 261.313 154a8 8 0 0 0-1.773 9.186l16.149 34.86-59.781 32.88-108.083-56.62-.036-.019-41.576-21.778Zm-11.454 166.187a8 8 0 0 0 7.567-.077l62.575-34.416 36.117 77.967a22.951 22.951 0 0 0-5.3 8.3c-.106.287-.178.58-.272.869A399.983 399.983 0 0 1 112 297.918V194.555ZM82.8 320h52.227a8.062 8.062 0 0 0 1.06-.078 416.031 416.031 0 0 0 79.922 7.754A415.951 415.951 0 0 0 295.534 320H314.8c.416 0 .826.029 1.239.051a22.946 22.946 0 0 0 18.11 9.779A23.978 23.978 0 0 1 314.8 368h-232v-16h16a8 8 0 0 0 0-16h-16ZM80 432a24 24 0 0 1 0-48h256v16h-37.2a8 8 0 0 0 0 16H336v16Zm321.789.194-49.956-107.84 29.925-13.863 49.975 107.885a80.811 80.811 0 0 1-29.944 13.818Zm46.328-23.32-2.6 1.2-49.247-106.31 16.13-7.464c.457-.212.891-.459 1.33-.7l57.148 91.884a49.517 49.517 0 0 1-22.761 21.39Z" data-original="#000000"/></g></svg>