<?xml version="1.0"?>
<svg xmlns="http://www.w3.org/2000/svg" xmlns:xlink="http://www.w3.org/1999/xlink" xmlns:svgjs="http://svgjs.com/svgjs" version="1.1" width="512" height="512" x="0" y="0" viewBox="0 0 64 64" style="enable-background:new 0 0 512 512" xml:space="preserve" class=""><g><path xmlns="http://www.w3.org/2000/svg" d="M1.684,40.948,13,44.72V56a1,1,0,0,0,.4.8,31,31,0,0,0,37.2,0A1,1,0,0,0,51,56V44.72l5-1.666V51a1,1,0,0,0-.929.629l-2,5A1,1,0,0,0,53,57v2a1,1,0,0,0,1,1h6a1,1,0,0,0,1-1V57a1,1,0,0,0-.071-.371l-2-5A1,1,0,0,0,58,51V42.387l4.316-1.439a1,1,0,0,0,0-1.9l-30-10a.991.991,0,0,0-.632,0l-30,10a1,1,0,0,0,0,1.9ZM59,57.192V58H55v-.808L56.677,53h.646ZM32,61a29.19,29.19,0,0,1-17-5.506V52.9a30.883,30.883,0,0,0,34,0v2.594A29.19,29.19,0,0,1,32,61ZM49,50.475a28.916,28.916,0,0,1-34,0V45.387l16.684,5.561a.986.986,0,0,0,.632,0L49,45.387ZM32,31.054,58.838,40,32,48.946,5.162,40Z" fill="#ffffff" data-original="#000000" style=""/><circle xmlns="http://www.w3.org/2000/svg" cx="32" cy="40" r="2" fill="#ffffff" data-original="#000000" style=""/><path xmlns="http://www.w3.org/2000/svg" d="M21,11a9.916,9.916,0,0,0-3.028-7.168A10,10,0,0,0,3.309,17.39a7.276,7.276,0,0,1,1.6,3.628A.99.99,0,0,0,4,22v6a1,1,0,0,0,1,1H6.1a5,5,0,0,0,9.8,0H17a1,1,0,0,0,1-1V22a.991.991,0,0,0-.911-.982A7.319,7.319,0,0,1,18.7,17.38,10.006,10.006,0,0,0,21,11ZM11,31a3,3,0,0,1-2.816-2h5.632A3,3,0,0,1,11,31Zm5-4H6V23H16Zm-.937-6H6.937a9.278,9.278,0,0,0-2.091-4.89A8,8,0,0,1,10.773,3,8,8,0,0,1,19,11a8,8,0,0,1-1.84,5.1A9.331,9.331,0,0,0,15.063,21Z" fill="#ffffff" data-original="#000000" style=""/><path xmlns="http://www.w3.org/2000/svg" d="M62,19a1,1,0,0,0,1-1V12a1,1,0,0,0-1-1H60.307a12.1,12.1,0,0,0-.482-1.169l1.2-1.2a1,1,0,0,0,0-1.414L56.778,2.979a1,1,0,0,0-1.414,0l-1.2,1.2A11.881,11.881,0,0,0,53,3.693V2a1,1,0,0,0-1-1H46a1,1,0,0,0-1,1V3.693a11.881,11.881,0,0,0-1.168.482l-1.2-1.2a1,1,0,0,0-1.414,0L36.979,7.222a1,1,0,0,0,0,1.414l1.2,1.2A12.1,12.1,0,0,0,37.693,11H36a1,1,0,0,0-1,1v6a1,1,0,0,0,1,1h1.693a12.1,12.1,0,0,0,.482,1.169l-1.2,1.2a1,1,0,0,0,0,1.414l4.243,4.243a1,1,0,0,0,1.414,0l1.2-1.2A11.881,11.881,0,0,0,45,26.307V28a1,1,0,0,0,1,1h6a1,1,0,0,0,1-1V26.307a11.881,11.881,0,0,0,1.168-.482l1.2,1.2a1,1,0,0,0,1.414,0l4.243-4.243a1,1,0,0,0,0-1.414l-1.2-1.2A12.1,12.1,0,0,0,60.307,19Zm-2.425-2a1,1,0,0,0-.962.728,9.973,9.973,0,0,1-.884,2.143,1,1,0,0,0,.166,1.2l1,1.005L56.071,24.9l-1-1a1,1,0,0,0-1.2-.166,9.939,9.939,0,0,1-2.144.884,1,1,0,0,0-.727.962V27H47V25.575a1,1,0,0,0-.727-.962,9.939,9.939,0,0,1-2.144-.884,1,1,0,0,0-1.2.166l-1,1L39.1,22.071l1-1.005a1,1,0,0,0,.166-1.2,9.973,9.973,0,0,1-.884-2.143A1,1,0,0,0,38.425,17H37V13h1.425a1,1,0,0,0,.962-.728,9.973,9.973,0,0,1,.884-2.143,1,1,0,0,0-.166-1.2l-1-1L41.929,5.1l1,1a1,1,0,0,0,1.2.166,9.939,9.939,0,0,1,2.144-.884A1,1,0,0,0,47,4.425V3h4V4.425a1,1,0,0,0,.727.962,9.939,9.939,0,0,1,2.144.884,1,1,0,0,0,1.2-.166l1-1L58.9,7.929l-1,1a1,1,0,0,0-.166,1.2,9.973,9.973,0,0,1,.884,2.143,1,1,0,0,0,.962.728H61v4Z" fill="#ffffff" data-original="#000000" style=""/><path xmlns="http://www.w3.org/2000/svg" d="M49,8a7,7,0,1,0,7,7A7.008,7.008,0,0,0,49,8Zm0,12a5,5,0,1,1,5-5A5.006,5.006,0,0,1,49,20Z" fill="#ffffff" data-original="#000000" style=""/><path xmlns="http://www.w3.org/2000/svg" d="M11,5V7a4,4,0,0,1,4,4h2A6.006,6.006,0,0,0,11,5Z" fill="#ffffff" data-original="#000000" style=""/><rect xmlns="http://www.w3.org/2000/svg" x="23" y="13" width="10" height="2" fill="#ffffff" data-original="#000000" style=""/></g></svg>
