<?xml version="1.0"?>
<svg xmlns="http://www.w3.org/2000/svg" xmlns:xlink="http://www.w3.org/1999/xlink" xmlns:svgjs="http://svgjs.com/svgjs" version="1.1" width="512" height="512" x="0" y="0" viewBox="0 0 512 512" style="enable-background:new 0 0 512 512" xml:space="preserve" class=""><g><g xmlns="http://www.w3.org/2000/svg"><path d="m494.8 260.09a8 8 0 0 0 0-8.18 281.136 281.136 0 0 0 -99.574-98.868 276.562 276.562 0 0 0 -271.05-4.136l7.642 14.057a260.564 260.564 0 0 1 255.341 3.9 265.059 265.059 0 0 1 91.409 89.137 265.208 265.208 0 0 1 -44.041 53.792l10.946 11.671a281.305 281.305 0 0 0 49.327-61.373z" fill="#ffffff" data-original="#000000" style="" class=""/><path d="m420.8 321.8a260.487 260.487 0 0 1 -295.9 23.339 265.1 265.1 0 0 1 -91.4-89.139 265.979 265.979 0 0 1 82.8-83.888l-8.594-13.5a282.037 282.037 0 0 0 -90.437 93.298 8 8 0 0 0 0 8.18 281.142 281.142 0 0 0 99.573 98.868 276.19 276.19 0 0 0 314.077-24.758z" fill="#ffffff" data-original="#000000" style="" class=""/><path d="m144 256a112 112 0 1 0 112-112 112.127 112.127 0 0 0 -112 112zm208 0a96 96 0 1 1 -96-96 96.108 96.108 0 0 1 96 96z" fill="#ffffff" data-original="#000000" style="" class=""/><path d="m252.751 200.689-72 32a8 8 0 0 0 0 14.622l19.249 8.555v40.134a8 8 0 0 0 8 8h96a8 8 0 0 0 8-8v-40.134l8-3.556v35.69h16v-48a8 8 0 0 0 -4.751-7.311l-72-32a8.01 8.01 0 0 0 -6.498 0zm43.249 87.311h-80v-25.023l36.751 16.334a8 8 0 0 0 6.5 0l36.749-16.334zm12.3-48-52.3 23.246-52.3-23.246 52.3-23.246z" fill="#ffffff" data-original="#000000" style="" class=""/><path d="m72 248h16v16h-16z" fill="#ffffff" data-original="#000000" style="" class=""/><path d="m112 248h16v16h-16z" fill="#ffffff" data-original="#000000" style="" class=""/><path d="m384 248h16v16h-16z" fill="#ffffff" data-original="#000000" style="" class=""/><path d="m424 248h16v16h-16z" fill="#ffffff" data-original="#000000" style="" class=""/><path d="m136.845 388.422-37.789 75.578h-27.341a28.008 28.008 0 1 0 -2.415 16h34.7a8 8 0 0 0 7.155-4.422l40-80zm-92.845 91.578a12 12 0 1 1 12-12 12.013 12.013 0 0 1 -12 12z" fill="#ffffff" data-original="#000000" style="" class=""/><path d="m264 449.371v-41.371h-16v41.371a24 24 0 1 0 16 0zm-8 30.629a8 8 0 1 1 8-8 8.009 8.009 0 0 1 -8 8z" fill="#ffffff" data-original="#000000" style="" class=""/><path d="m212.438 457.344-20.438-13.625v-35.719h-16v40a8 8 0 0 0 3.562 6.656l20.438 13.625v27.719h16v-32a8 8 0 0 0 -3.562-6.656z" fill="#ffffff" data-original="#000000" style="" class=""/><path d="m144 456h16v16h-16z" fill="#ffffff" data-original="#000000" style="" class=""/><path d="m65.344 388.438a8 8 0 0 0 6.656 3.562h40v-16h-35.719l-13.625-20.438a8 8 0 0 0 -6.656-3.562h-40v16h35.719z" fill="#ffffff" data-original="#000000" style="" class=""/><path d="m32 408h24v16h-24z" fill="#ffffff" data-original="#000000" style="" class=""/><path d="m468 440a28.043 28.043 0 0 0 -27.715 24h-27.341l-37.789-75.578-14.31 7.156 40 80a8 8 0 0 0 7.155 4.422h34.7a28 28 0 1 0 25.3-40zm0 40a12 12 0 1 1 12-12 12.013 12.013 0 0 1 -12 12z" fill="#ffffff" data-original="#000000" style="" class=""/><path d="m320 443.719-20.438 13.625a8 8 0 0 0 -3.562 6.656v32h16v-27.719l20.438-13.625a8 8 0 0 0 3.562-6.656v-40h-16z" fill="#ffffff" data-original="#000000" style="" class=""/><path d="m352 456h16v16h-16z" fill="#ffffff" data-original="#000000" style="" class=""/><path d="m449.344 355.562-13.625 20.438h-35.719v16h40a8 8 0 0 0 6.656-3.562l13.625-20.438h35.719v-16h-40a8 8 0 0 0 -6.656 3.562z" fill="#ffffff" data-original="#000000" style="" class=""/><path d="m456 408h24v16h-24z" fill="#ffffff" data-original="#000000" style="" class=""/><path d="m44 72a28.043 28.043 0 0 0 27.715-24h27.341l37.789 75.578 14.31-7.156-40-80a8 8 0 0 0 -7.155-4.422h-34.7a28 28 0 1 0 -25.3 40zm0-40a12 12 0 1 1 -12 12 12.013 12.013 0 0 1 12-12z" fill="#ffffff" data-original="#000000" style="" class=""/><path d="m248 62.629v41.371h16v-41.371a24 24 0 1 0 -16 0zm8-30.629a8 8 0 1 1 -8 8 8.009 8.009 0 0 1 8-8z" fill="#ffffff" data-original="#000000" style="" class=""/><path d="m192 68.281 20.438-13.625a8 8 0 0 0 3.562-6.656v-32h-16v27.719l-20.438 13.625a8 8 0 0 0 -3.562 6.656v40h16z" fill="#ffffff" data-original="#000000" style="" class=""/><path d="m144 40h16v16h-16z" fill="#ffffff" data-original="#000000" style="" class=""/><path d="m62.656 156.438 13.625-20.438h35.719v-16h-40a8 8 0 0 0 -6.656 3.562l-13.625 20.438h-35.719v16h40a8 8 0 0 0 6.656-3.562z" fill="#ffffff" data-original="#000000" style="" class=""/><path d="m32 88h24v16h-24z" fill="#ffffff" data-original="#000000" style="" class=""/><path d="m375.155 123.578 37.789-75.578h27.341a28.008 28.008 0 1 0 2.415-16h-34.7a8 8 0 0 0 -7.155 4.422l-40 80zm92.845-91.578a12 12 0 1 1 -12 12 12.013 12.013 0 0 1 12-12z" fill="#ffffff" data-original="#000000" style="" class=""/><path d="m299.562 54.656 20.438 13.625v35.719h16v-40a8 8 0 0 0 -3.562-6.656l-20.438-13.625v-27.719h-16v32a8 8 0 0 0 3.562 6.656z" fill="#ffffff" data-original="#000000" style="" class=""/><path d="m352 40h16v16h-16z" fill="#ffffff" data-original="#000000" style="" class=""/><path d="m446.656 123.562a8 8 0 0 0 -6.656-3.562h-40v16h35.719l13.625 20.438a8 8 0 0 0 6.656 3.562h40v-16h-35.719z" fill="#ffffff" data-original="#000000" style="" class=""/><path d="m456 88h24v16h-24z" fill="#ffffff" data-original="#000000" style="" class=""/></g></g></svg>
