<svg xmlns="http://www.w3.org/2000/svg" width="512" height="512" style="enable-background:new 0 0 512 512" xml:space="preserve"><g xmlns="http://www.w3.org/2000/svg" fill="#fff"><path d="M494.8 260.09a8 8 0 0 0 0-8.18 281.136 281.136 0 0 0-99.574-98.868 276.562 276.562 0 0 0-271.05-4.136l7.642 14.057a260.564 260.564 0 0 1 255.341 3.9A265.059 265.059 0 0 1 478.568 256a265.208 265.208 0 0 1-44.041 53.792l10.946 11.671A281.305 281.305 0 0 0 494.8 260.09zM420.8 321.8a260.487 260.487 0 0 1-295.9 23.339A265.1 265.1 0 0 1 33.5 256a265.979 265.979 0 0 1 82.8-83.888l-8.594-13.5a282.037 282.037 0 0 0-90.437 93.298 8 8 0 0 0 0 8.18 281.142 281.142 0 0 0 99.573 98.868A276.19 276.19 0 0 0 430.919 334.2z" data-original="#000000"/><path d="M144 256a112 112 0 1 0 112-112 112.127 112.127 0 0 0-112 112zm208 0a96 96 0 1 1-96-96 96.108 96.108 0 0 1 96 96z" data-original="#000000"/><path d="m252.751 200.689-72 32a8 8 0 0 0 0 14.622L200 255.866V296a8 8 0 0 0 8 8h96a8 8 0 0 0 8-8v-40.134l8-3.556V288h16v-48a8 8 0 0 0-4.751-7.311l-72-32a8.01 8.01 0 0 0-6.498 0zM296 288h-80v-25.023l36.751 16.334a8 8 0 0 0 6.5 0L296 262.977zm12.3-48L256 263.246 203.7 240l52.3-23.246zM72 248h16v16H72zM112 248h16v16h-16zM384 248h16v16h-16zM424 248h16v16h-16zM136.845 388.422 99.056 464H71.715a28.008 28.008 0 1 0-2.415 16H104a8 8 0 0 0 7.155-4.422l40-80zM44 480a12 12 0 1 1 12-12 12.013 12.013 0 0 1-12 12zM264 449.371V408h-16v41.371a24 24 0 1 0 16 0zM256 480a8 8 0 1 1 8-8 8.009 8.009 0 0 1-8 8zM212.438 457.344 192 443.719V408h-16v40a8 8 0 0 0 3.562 6.656L200 468.281V496h16v-32a8 8 0 0 0-3.562-6.656zM144 456h16v16h-16zM65.344 388.438A8 8 0 0 0 72 392h40v-16H76.281l-13.625-20.438A8 8 0 0 0 56 352H16v16h35.719zM32 408h24v16H32zM468 440a28.043 28.043 0 0 0-27.715 24h-27.341l-37.789-75.578-14.31 7.156 40 80A8 8 0 0 0 408 480h34.7a28 28 0 1 0 25.3-40zm0 40a12 12 0 1 1 12-12 12.013 12.013 0 0 1-12 12zM320 443.719l-20.438 13.625A8 8 0 0 0 296 464v32h16v-27.719l20.438-13.625A8 8 0 0 0 336 448v-40h-16zM352 456h16v16h-16zM449.344 355.562 435.719 376H400v16h40a8 8 0 0 0 6.656-3.562L460.281 368H496v-16h-40a8 8 0 0 0-6.656 3.562zM456 408h24v16h-24zM44 72a28.043 28.043 0 0 0 27.715-24h27.341l37.789 75.578 14.31-7.156-40-80A8 8 0 0 0 104 32H69.3A28 28 0 1 0 44 72zm0-40a12 12 0 1 1-12 12 12.013 12.013 0 0 1 12-12zM248 62.629V104h16V62.629a24 24 0 1 0-16 0zM256 32a8 8 0 1 1-8 8 8.009 8.009 0 0 1 8-8zM192 68.281l20.438-13.625A8 8 0 0 0 216 48V16h-16v27.719l-20.438 13.625A8 8 0 0 0 176 64v40h16zM144 40h16v16h-16zM62.656 156.438 76.281 136H112v-16H72a8 8 0 0 0-6.656 3.562L51.719 144H16v16h40a8 8 0 0 0 6.656-3.562zM32 88h24v16H32zM375.155 123.578 412.944 48h27.341a28.008 28.008 0 1 0 2.415-16H408a8 8 0 0 0-7.155 4.422l-40 80zM468 32a12 12 0 1 1-12 12 12.013 12.013 0 0 1 12-12zM299.562 54.656 320 68.281V104h16V64a8 8 0 0 0-3.562-6.656L312 43.719V16h-16v32a8 8 0 0 0 3.562 6.656zM352 40h16v16h-16zM446.656 123.562A8 8 0 0 0 440 120h-40v16h35.719l13.625 20.438A8 8 0 0 0 456 160h40v-16h-35.719zM456 88h24v16h-24z" data-original="#000000"/></g></svg>