<svg xmlns="http://www.w3.org/2000/svg" width="512" height="512" viewBox="0 0 512.118 512.118" style="enable-background:new 0 0 512 512" xml:space="preserve"><g fill="#fff" xmlns="http://www.w3.org/2000/svg"><path d="M138.228 313.997H15.526C6.965 313.997 0 320.963 0 329.524v159.879c0 8.561 6.965 15.526 15.526 15.526h122.702c8.561 0 15.526-6.965 15.526-15.526v-38.695a7.5 7.5 0 0 0-15 0v38.695c0 .29-.236.526-.526.526H15.526a.527.527 0 0 1-.526-.526V329.524c0-.29.236-.526.526-.526h122.702c.29 0 .526.236.526.526v86.533a7.5 7.5 0 0 0 15 0v-86.533c-.001-8.561-6.965-15.527-15.526-15.527zM317.41 313.997H194.708c-8.561 0-15.526 6.965-15.526 15.526v159.879c0 8.561 6.965 15.526 15.526 15.526H317.41c8.561 0 15.525-6.965 15.525-15.526V329.524c.001-8.561-6.964-15.527-15.525-15.527zm.526 175.406c0 .29-.235.526-.525.526H194.708a.527.527 0 0 1-.526-.526V329.524c0-.29.236-.526.526-.526H317.41c.29 0 .525.236.525.526v159.879zM496.592 313.997H373.891c-8.562 0-15.526 6.965-15.526 15.526v159.879c0 8.561 6.965 15.526 15.526 15.526h122.701c8.562 0 15.526-6.965 15.526-15.526V329.524c0-8.561-6.965-15.527-15.526-15.527zm.526 175.406c0 .29-.236.526-.526.526H373.891a.527.527 0 0 1-.526-.526V329.524c0-.29.236-.526.526-.526h122.701c.29 0 .526.236.526.526z" data-original="#000000"/><path d="M125.559 362.094c0-6.895-5.609-12.504-12.503-12.504H40.698c-6.895 0-12.503 5.609-12.503 12.504v32.942c0 6.895 5.609 12.503 12.503 12.503h72.358c6.895 0 12.503-5.609 12.503-12.503zm-15 30.445H43.194V364.59h67.365zM125.559 432.481a7.5 7.5 0 0 0-7.5-7.5H35.694a7.5 7.5 0 0 0 0 15h82.365a7.5 7.5 0 0 0 7.5-7.5zM35.694 454.337a7.5 7.5 0 0 0 0 15h54.571a7.5 7.5 0 0 0 0-15zM292.237 349.59H219.88c-6.895 0-12.504 5.609-12.504 12.504v32.942c0 6.895 5.609 12.503 12.504 12.503h72.357c6.895 0 12.504-5.609 12.504-12.503v-32.942c0-6.895-5.609-12.504-12.504-12.504zm-2.496 42.949h-67.365V364.59h67.365zM297.241 424.981h-82.365a7.5 7.5 0 0 0 0 15h82.365c4.143 0 7.5-3.358 7.5-7.5s-3.357-7.5-7.5-7.5zM269.447 454.337h-54.571a7.5 7.5 0 0 0 0 15h54.571c4.143 0 7.5-3.358 7.5-7.5s-3.357-7.5-7.5-7.5zM471.42 349.59h-72.357c-6.895 0-12.504 5.609-12.504 12.504v32.942c0 6.895 5.609 12.503 12.504 12.503h72.357c6.895 0 12.504-5.609 12.504-12.503v-32.942c0-6.895-5.61-12.504-12.504-12.504zm-2.496 42.949h-67.365V364.59h67.365zM476.424 424.981h-82.365c-4.143 0-7.5 3.358-7.5 7.5s3.357 7.5 7.5 7.5h82.365a7.5 7.5 0 0 0 0-15zM448.63 454.337h-54.571c-4.143 0-7.5 3.358-7.5 7.5s3.357 7.5 7.5 7.5h54.571a7.5 7.5 0 0 0 0-15zM76.877 297.026a7.5 7.5 0 0 0 7.5-7.5v-49.251h164.182v49.251a7.5 7.5 0 0 0 15 0v-49.251h164.182v49.251c0 4.142 3.357 7.5 7.5 7.5s7.5-3.358 7.5-7.5v-56.751a7.5 7.5 0 0 0-7.5-7.5H263.56v-27.154h72.157c8.562 0 15.527-6.966 15.527-15.528v-.706c0-.976-.039-122.534-.068-122.852a7.544 7.544 0 0 0-.642-2.48c-.38-.848-.878-1.679-1.546-2.333L303.087 9.326c-1.326-1.297-3.401-2.138-5.245-2.138h-18.45c-4.143 0-7.5 3.358-7.5 7.5s3.357 7.5 7.5 7.5h10.95v29.066c0 8.729 7.102 15.831 15.831 15.831h30.07v115.508a.528.528 0 0 1-.527.528H176.401a.528.528 0 0 1-.527-.528V22.717c0-.291.236-.528.527-.528h68.033a7.5 7.5 0 0 0 0-15h-68.033c-8.562 0-15.527 6.966-15.527 15.528v159.876c0 8.562 6.965 15.528 15.527 15.528h72.158v27.154H76.877a7.5 7.5 0 0 0-7.5 7.5v56.751a7.5 7.5 0 0 0 7.5 7.5zM306.174 52.085a.832.832 0 0 1-.831-.831V32.516l17.045 16.672 2.962 2.898h-19.176z" data-original="#000000"/><path d="M291.419 84.431h-70.72a7.5 7.5 0 0 0 0 15h70.72c4.143 0 7.5-3.358 7.5-7.5s-3.357-7.5-7.5-7.5zM314.008 117.79H198.11a7.5 7.5 0 0 0 0 15h115.897c4.143 0 7.5-3.358 7.5-7.5s-3.357-7.5-7.499-7.5zM314.008 151.149H198.11a7.5 7.5 0 0 0 0 15h115.897c4.143 0 7.5-3.358 7.5-7.5s-3.357-7.5-7.499-7.5z" data-original="#000000"/></g></svg>