<?xml version="1.0"?>
<svg xmlns="http://www.w3.org/2000/svg" xmlns:xlink="http://www.w3.org/1999/xlink" xmlns:svgjs="http://svgjs.com/svgjs" version="1.1" width="512" height="512" x="0" y="0" viewBox="0 0 512.118 512.118" style="enable-background:new 0 0 512 512" xml:space="preserve" class=""><g><g xmlns="http://www.w3.org/2000/svg"><g><g><path d="m138.228 313.997h-122.702c-8.561 0-15.526 6.966-15.526 15.527v159.879c0 8.561 6.965 15.526 15.526 15.526h122.702c8.561 0 15.526-6.965 15.526-15.526v-38.695c0-4.142-3.358-7.5-7.5-7.5s-7.5 3.358-7.5 7.5v38.695c0 .29-.236.526-.526.526h-122.702c-.29 0-.526-.236-.526-.526v-159.879c0-.29.236-.526.526-.526h122.702c.29 0 .526.236.526.526v86.533c0 4.142 3.358 7.5 7.5 7.5s7.5-3.358 7.5-7.5v-86.533c-.001-8.561-6.965-15.527-15.526-15.527z" fill="#ffffff" data-original="#000000" style="" class=""/><path d="m317.41 313.997h-122.702c-8.561 0-15.526 6.965-15.526 15.526v159.879c0 8.561 6.965 15.526 15.526 15.526h122.702c8.561 0 15.525-6.965 15.525-15.526v-159.878c.001-8.561-6.964-15.527-15.525-15.527zm.526 175.406c0 .29-.235.526-.525.526h-122.703c-.29 0-.526-.236-.526-.526v-159.879c0-.29.236-.526.526-.526h122.702c.29 0 .525.236.525.526v159.879z" fill="#ffffff" data-original="#000000" style="" class=""/><path d="m496.592 313.997h-122.701c-8.562 0-15.526 6.965-15.526 15.526v159.879c0 8.561 6.965 15.526 15.526 15.526h122.701c8.562 0 15.526-6.965 15.526-15.526v-159.878c0-8.561-6.965-15.527-15.526-15.527zm.526 175.406c0 .29-.236.526-.526.526h-122.701c-.29 0-.526-.236-.526-.526v-159.879c0-.29.236-.526.526-.526h122.701c.29 0 .526.236.526.526z" fill="#ffffff" data-original="#000000" style="" class=""/><path d="m125.559 362.094c0-6.895-5.609-12.504-12.503-12.504h-72.358c-6.895 0-12.503 5.609-12.503 12.504v32.942c0 6.895 5.609 12.503 12.503 12.503h72.358c6.895 0 12.503-5.609 12.503-12.503zm-15 30.445h-67.365v-27.949h67.365z" fill="#ffffff" data-original="#000000" style="" class=""/><path d="m125.559 432.481c0-4.142-3.358-7.5-7.5-7.5h-82.365c-4.142 0-7.5 3.358-7.5 7.5s3.358 7.5 7.5 7.5h82.365c4.142 0 7.5-3.358 7.5-7.5z" fill="#ffffff" data-original="#000000" style="" class=""/><path d="m35.694 454.337c-4.142 0-7.5 3.358-7.5 7.5s3.358 7.5 7.5 7.5h54.571c4.142 0 7.5-3.358 7.5-7.5s-3.358-7.5-7.5-7.5z" fill="#ffffff" data-original="#000000" style="" class=""/><path d="m292.237 349.59h-72.357c-6.895 0-12.504 5.609-12.504 12.504v32.942c0 6.895 5.609 12.503 12.504 12.503h72.357c6.895 0 12.504-5.609 12.504-12.503v-32.942c0-6.895-5.609-12.504-12.504-12.504zm-2.496 42.949h-67.365v-27.949h67.365z" fill="#ffffff" data-original="#000000" style="" class=""/><path d="m297.241 424.981h-82.365c-4.142 0-7.5 3.358-7.5 7.5s3.358 7.5 7.5 7.5h82.365c4.143 0 7.5-3.358 7.5-7.5s-3.357-7.5-7.5-7.5z" fill="#ffffff" data-original="#000000" style="" class=""/><path d="m269.447 454.337h-54.571c-4.142 0-7.5 3.358-7.5 7.5s3.358 7.5 7.5 7.5h54.571c4.143 0 7.5-3.358 7.5-7.5s-3.357-7.5-7.5-7.5z" fill="#ffffff" data-original="#000000" style="" class=""/><path d="m471.42 349.59h-72.357c-6.895 0-12.504 5.609-12.504 12.504v32.942c0 6.895 5.609 12.503 12.504 12.503h72.357c6.895 0 12.504-5.609 12.504-12.503v-32.942c0-6.895-5.61-12.504-12.504-12.504zm-2.496 42.949h-67.365v-27.949h67.365z" fill="#ffffff" data-original="#000000" style="" class=""/><path d="m476.424 424.981h-82.365c-4.143 0-7.5 3.358-7.5 7.5s3.357 7.5 7.5 7.5h82.365c4.143 0 7.5-3.358 7.5-7.5s-3.358-7.5-7.5-7.5z" fill="#ffffff" data-original="#000000" style="" class=""/><path d="m448.63 454.337h-54.571c-4.143 0-7.5 3.358-7.5 7.5s3.357 7.5 7.5 7.5h54.571c4.143 0 7.5-3.358 7.5-7.5s-3.358-7.5-7.5-7.5z" fill="#ffffff" data-original="#000000" style="" class=""/><path d="m76.877 297.026c4.142 0 7.5-3.358 7.5-7.5v-49.251h164.182v49.251c0 4.142 3.358 7.5 7.5 7.5s7.5-3.358 7.5-7.5v-49.251h164.182v49.251c0 4.142 3.357 7.5 7.5 7.5s7.5-3.358 7.5-7.5v-56.751c0-4.142-3.357-7.5-7.5-7.5h-171.681v-27.154h72.157c8.562 0 15.527-6.966 15.527-15.528 0-.235 0-.47 0-.706 0-.976-.039-122.534-.068-122.852-.076-.847-.267-1.643-.642-2.48-.38-.848-.878-1.679-1.546-2.333-.087-.085-45.901-44.896-45.901-44.896-1.326-1.297-3.401-2.138-5.245-2.138-.104 0-18.45 0-18.45 0-4.143 0-7.5 3.358-7.5 7.5s3.357 7.5 7.5 7.5h10.95v29.066c0 8.729 7.102 15.831 15.831 15.831h30.07v115.508c0 .291-.236.528-.527.528h-159.315c-.291 0-.527-.237-.527-.528v-159.876c0-.291.236-.528.527-.528h68.033c4.142 0 7.5-3.358 7.5-7.5s-3.358-7.5-7.5-7.5h-68.033c-8.562 0-15.527 6.966-15.527 15.528v159.876c0 8.562 6.965 15.528 15.527 15.528h72.158v27.154h-171.682c-4.142 0-7.5 3.358-7.5 7.5v56.751c0 4.142 3.358 7.5 7.5 7.5zm229.297-244.941c-.458 0-.831-.373-.831-.831v-18.738l17.045 16.672 2.962 2.898h-19.176z" fill="#ffffff" data-original="#000000" style="" class=""/><path d="m291.419 84.431h-70.72c-4.142 0-7.5 3.358-7.5 7.5s3.358 7.5 7.5 7.5h70.72c4.143 0 7.5-3.358 7.5-7.5s-3.357-7.5-7.5-7.5z" fill="#ffffff" data-original="#000000" style="" class=""/><path d="m314.008 117.79h-115.898c-4.142 0-7.5 3.358-7.5 7.5s3.358 7.5 7.5 7.5h115.897c4.143 0 7.5-3.358 7.5-7.5s-3.357-7.5-7.499-7.5z" fill="#ffffff" data-original="#000000" style="" class=""/><path d="m314.008 151.149h-115.898c-4.142 0-7.5 3.358-7.5 7.5s3.358 7.5 7.5 7.5h115.897c4.143 0 7.5-3.358 7.5-7.5s-3.357-7.5-7.499-7.5z" fill="#ffffff" data-original="#000000" style="" class=""/></g></g></g></g></svg>
