<?xml version="1.0"?>
<svg xmlns="http://www.w3.org/2000/svg" xmlns:xlink="http://www.w3.org/1999/xlink" xmlns:svgjs="http://svgjs.com/svgjs" version="1.1" width="512" height="512" x="0" y="0" viewBox="0 0 512 512" style="enable-background:new 0 0 512 512" xml:space="preserve" class=""><g><g xmlns="http://www.w3.org/2000/svg"><path d="M174.56,89.591l15.68-3.182A88.24,88.24,0,0,0,104,16,87.255,87.255,0,0,0,51.2,33.6l9.61,12.793A71.369,71.369,0,0,1,104,32,72.189,72.189,0,0,1,174.56,89.591Z" fill="#ffffff" data-original="#000000" style=""/><path d="M50.754,359.534a71.8,71.8,0,0,1,46.037-23.179l-1.582-15.921a88,88,0,1,0,96.357,96.356l-15.922-1.58a71.692,71.692,0,0,1-17.553,40.314c-3.761-15.98-12.861-29.886-25.332-38.456A27.821,27.821,0,0,0,136,404V388a28.032,28.032,0,0,0-28-28h-8a28.032,28.032,0,0,0-28,28v16a27.824,27.824,0,0,0,3.241,13.068c-12.46,8.562-21.554,22.451-25.322,38.415a71.938,71.938,0,0,1,.835-95.949ZM88,388a12.013,12.013,0,0,1,12-12h8a12.013,12.013,0,0,1,12,12v16a12.013,12.013,0,0,1-12,12h-8a12.013,12.013,0,0,1-12-12Zm-1.215,40.68A27.831,27.831,0,0,0,100,432h8a27.831,27.831,0,0,0,13.215-3.32c12.772,7.338,21.445,22.355,22.642,39.291a71.958,71.958,0,0,1-79.712-.034C65.351,451.015,74.021,436.013,86.785,428.68Z" fill="#ffffff" data-original="#000000" style=""/><path d="M408,16a88.012,88.012,0,0,0-87.566,79.209l15.922,1.582a72,72,0,1,1,125.735,54.731c-3.761-15.98-12.862-29.885-25.332-38.454A27.824,27.824,0,0,0,440,100V84a28.032,28.032,0,0,0-28-28h-8a28.032,28.032,0,0,0-28,28v16a27.832,27.832,0,0,0,3.23,13.049,60.226,60.226,0,0,0-18.992,21.465,160.409,160.409,0,0,0-43.381-26.532A80.133,80.133,0,0,0,296,90.7V72h16V56H200V72h16V90.707a79.939,79.939,0,0,0-20.623,17.179,159.6,159.6,0,0,0-43.595,26.669,60.3,60.3,0,0,0-19.013-21.505A27.837,27.837,0,0,0,136,100V84a28.032,28.032,0,0,0-28-28h-8A28.032,28.032,0,0,0,72,84v16a27.824,27.824,0,0,0,3.241,13.068c-12.47,8.569-21.57,22.474-25.331,38.454A72.013,72.013,0,0,1,46.4,60.8L33.6,51.187A88.011,88.011,0,0,0,95.209,191.566l1.582-15.922a71.616,71.616,0,0,1-32.649-11.67c1.2-16.937,9.869-31.954,22.642-39.294A27.838,27.838,0,0,0,100,128h8a27.832,27.832,0,0,0,13.218-3.321c7.947,4.555,14.4,12.1,18.4,21.493a161.715,161.715,0,0,0-15.31,18.927A159.089,159.089,0,0,0,96,256c0,88.225,71.776,160,160,160s160-71.775,160-160a162.485,162.485,0,0,0-.875-16.832l-15.914,1.664A146.249,146.249,0,0,1,400,256a143.734,143.734,0,0,1-50.539,109.466A227.591,227.591,0,0,0,336,313.845V160a80.381,80.381,0,0,0-4.536-26.7A143.538,143.538,0,0,1,396.8,225.676l15.645-3.352A159.494,159.494,0,0,0,372.405,146.1c4-9.364,10.442-16.879,18.376-21.425A27.825,27.825,0,0,0,404,128h8a27.838,27.838,0,0,0,13.216-3.32c12.773,7.34,21.446,22.357,22.642,39.294a71.616,71.616,0,0,1-32.649,11.67l1.582,15.922A88,88,0,0,0,408,16ZM280,72V89.754l-24,6-24-6V72ZM108,112h-8a12.013,12.013,0,0,1-12-12V84a12.013,12.013,0,0,1,12-12h8a12.013,12.013,0,0,1,12,12v16A12.013,12.013,0,0,1,108,112Zm4,144a144.092,144.092,0,0,1,68.661-122.767A79.433,79.433,0,0,0,176,160v40h16V160a64.392,64.392,0,0,1,32.383-55.658l29.677,7.419a7.993,7.993,0,0,0,3.88,0l29.681-7.42A63.714,63.714,0,0,1,320,160V283.8c-9.562-13.534-20.847-23.333-33.735-29.271l-4.172-20.857,8.313-4.988A28.143,28.143,0,0,0,304,204.676V168a8,8,0,0,0-8-8h-8a40.1,40.1,0,0,1-37.675-26.524,8,8,0,0,0-8.378-5.261A37.907,37.907,0,0,0,208,166v38.676a28.143,28.143,0,0,0,13.594,24.01l8.313,4.987-4.173,20.862c-13.526,6.258-24.688,16.627-33.734,29.442V216H176v97.989a226.387,226.387,0,0,0-13.457,51.48A143.734,143.734,0,0,1,112,256Zm115.661,15.548L249.6,300.8a8,8,0,0,0,12.8,0l21.932-29.243a69.128,69.128,0,0,1,17.895,15.464L256,339.852,209.737,286.98A68.633,68.633,0,0,1,227.661,271.548ZM256,244.685a27.932,27.932,0,0,0,11.484-2.471l3.97,19.848L256,282.667l-15.454-20.6,3.97-19.848A27.932,27.932,0,0,0,256,244.685Zm6.174-17.719a11.978,11.978,0,0,1-12.348,0l-20-12A12.059,12.059,0,0,1,224,204.676V166a21.952,21.952,0,0,1,14.1-20.553A56.162,56.162,0,0,0,288,176v28.676a12.059,12.059,0,0,1-5.826,10.29ZM312,388.665V352H296v42.348a144.369,144.369,0,0,1-80,0V352H200v36.665a143.893,143.893,0,0,1-22.72-12.136c2.5-23.571,8.459-46.329,16.93-64.5q2.877-6.168,6.066-11.563l49.7,56.8a8,8,0,0,0,12.042,0L311.69,300.5c13.019,21.991,20.306,50.589,23.027,76.028A143.858,143.858,0,0,1,312,388.665ZM412,112h-8a12.013,12.013,0,0,1-12-12V84a12.013,12.013,0,0,1,12-12h8a12.013,12.013,0,0,1,12,12v16A12.013,12.013,0,0,1,412,112Z" fill="#ffffff" data-original="#000000" style=""/><path d="M479.644,400.79l15.922-1.58a88.136,88.136,0,0,0-78.775-78.776l-1.582,15.921A72.092,72.092,0,0,1,479.644,400.79Z" fill="#ffffff" data-original="#000000" style=""/><path d="M353.909,455.524a71.7,71.7,0,0,1-17.553-40.314l-15.922,1.58a88.007,88.007,0,0,0,175.132,0l-15.922-1.58a71.692,71.692,0,0,1-17.553,40.314c-3.761-15.98-12.861-29.886-25.332-38.456A27.821,27.821,0,0,0,440,404V388a28.032,28.032,0,0,0-28-28h-8a28.032,28.032,0,0,0-28,28v16a27.824,27.824,0,0,0,3.241,13.068C366.771,425.638,357.67,439.543,353.909,455.524Zm93.948,12.447a72.046,72.046,0,0,1-79.714,0c1.2-16.936,9.87-31.953,22.642-39.291A27.831,27.831,0,0,0,404,432h8a27.831,27.831,0,0,0,13.215-3.32C437.987,436.018,446.66,451.035,447.857,467.971ZM392,388a12.013,12.013,0,0,1,12-12h8a12.013,12.013,0,0,1,12,12v16a12.013,12.013,0,0,1-12,12h-8a12.013,12.013,0,0,1-12-12Z" fill="#ffffff" data-original="#000000" style=""/></g></g></svg>
