<svg xmlns="http://www.w3.org/2000/svg" width="512" height="512" viewBox="0 0 24 24" style="enable-background:new 0 0 512 512" xml:space="preserve"><path d="M12 24a.457.457 0 0 1-.127-.017C11.774 23.958 2 21.28 2 12.179V4a.5.5 0 0 1 .327-.469l9.5-3.5a.502.502 0 0 1 .346 0l9.5 3.5A.5.5 0 0 1 22 4v8.179c0 9.102-9.774 11.779-9.873 11.805A.497.497 0 0 1 12 24zM3 4.349v7.83c0 7.882 7.85 10.466 9 10.802 1.15-.336 9-2.92 9-10.802v-7.83l-9-3.316z" fill="#fff" data-original="#000000" xmlns="http://www.w3.org/2000/svg"/><path d="M12 16c-1.431 0-2.862-.424-4.283-1.271A1.5 1.5 0 0 1 7 13.443V10.5a.5.5 0 0 1 1 0v2.943a.5.5 0 0 0 .23.427c2.537 1.513 5.003 1.513 7.54 0a.5.5 0 0 0 .23-.427V10.5a.5.5 0 0 1 1 0v2.943a1.5 1.5 0 0 1-.717 1.286C14.862 15.576 13.431 16 12 16z" fill="#fff" data-original="#000000" xmlns="http://www.w3.org/2000/svg"/><path d="M12 13a.493.493 0 0 1-.209-.046l-6.5-3a.5.5 0 0 1 0-.908l6.5-3a.495.495 0 0 1 .419 0l6.5 3a.5.5 0 0 1-.001.908l-6.5 3A.493.493 0 0 1 12 13zM6.693 9.5 12 11.949 17.307 9.5 12 7.051z" fill="#fff" data-original="#000000" xmlns="http://www.w3.org/2000/svg"/></svg>