<?xml version="1.0"?>
<svg xmlns="http://www.w3.org/2000/svg" xmlns:xlink="http://www.w3.org/1999/xlink" xmlns:svgjs="http://svgjs.com/svgjs" version="1.1" width="512" height="512" x="0" y="0" viewBox="0 0 24 24" style="enable-background:new 0 0 512 512" xml:space="preserve"><g><g xmlns="http://www.w3.org/2000/svg"><g><path d="m12 24c-.043 0-.085-.005-.127-.017-.099-.025-9.873-2.703-9.873-11.804v-8.179c0-.209.13-.397.327-.469l9.5-3.5c.111-.041.234-.041.346 0l9.5 3.5c.197.072.327.26.327.469v8.179c0 9.102-9.774 11.779-9.873 11.805-.042.011-.084.016-.127.016zm-9-19.651v7.83c0 7.882 7.85 10.466 9 10.802 1.15-.336 9-2.92 9-10.802v-7.83l-9-3.316z" fill="#ffffff" data-original="#000000" style=""/></g></g><g xmlns="http://www.w3.org/2000/svg"><path d="m12 16c-1.431 0-2.862-.424-4.283-1.271-.442-.265-.717-.757-.717-1.286v-2.943c0-.276.224-.5.5-.5s.5.224.5.5v2.943c0 .176.09.344.23.427 2.537 1.513 5.003 1.513 7.54 0 .14-.083.23-.251.23-.427v-2.943c0-.276.224-.5.5-.5s.5.224.5.5v2.943c0 .529-.275 1.021-.717 1.286-1.421.847-2.852 1.271-4.283 1.271z" fill="#ffffff" data-original="#000000" style=""/></g><g xmlns="http://www.w3.org/2000/svg"><path d="m12 13c-.071 0-.143-.015-.209-.046l-6.5-3c-.178-.082-.291-.259-.291-.454s.113-.372.291-.454l6.5-3c.133-.062.286-.062.419 0l6.5 3c.177.082.29.259.29.454s-.113.372-.291.454l-6.5 3c-.066.031-.138.046-.209.046zm-5.307-3.5 5.307 2.449 5.307-2.449-5.307-2.449z" fill="#ffffff" data-original="#000000" style=""/></g></g></svg>
