<svg xmlns="http://www.w3.org/2000/svg" width="512" height="512" style="enable-background:new 0 0 512 512" xml:space="preserve"><g xmlns="http://www.w3.org/2000/svg" fill="#fff"><path d="M472 224v-12a28.032 28.032 0 0 0-28-28h-12v-19.639a27.847 27.847 0 0 0-15.478-25.044l-33.98-16.99-4.671-14.011A28.018 28.018 0 0 0 392 84V44a28.032 28.032 0 0 0-28-28h-24a28.032 28.032 0 0 0-28 28v40a28.018 28.018 0 0 0 14.129 24.316l-4.671 14.011-33.98 16.99A27.847 27.847 0 0 0 272 164.361v19.924a28.224 28.224 0 0 0-4-.285h-24a28.224 28.224 0 0 0-4 .285v-19.924a27.847 27.847 0 0 0-15.478-25.044l-33.98-16.99-4.671-14.011A28.018 28.018 0 0 0 200 84V44a28.032 28.032 0 0 0-28-28h-24a28.032 28.032 0 0 0-28 28v12h16V44a12.013 12.013 0 0 1 12-12h24a12.013 12.013 0 0 1 12 12v40a12.013 12.013 0 0 1-12 12h-24a12.013 12.013 0 0 1-12-12V72h-16v12a28.018 28.018 0 0 0 14.129 24.316l-4.671 14.011-33.98 16.99A27.847 27.847 0 0 0 80 164.361V184H68a28.032 28.032 0 0 0-28 28v12H16v16h24v12a28.018 28.018 0 0 0 14.129 24.316L49.2 291.1l-30 22.5A8 8 0 0 0 16 320v96a8 8 0 0 0 8 8h16v72h16v-72h400v72h16v-72h16a8 8 0 0 0 8-8v-64h-16v24H368v-43.639a11.936 11.936 0 0 1 6.633-10.734l30.973-15.486 3.994 5.325a28 28 0 0 0 44.8 0l3.2-4.266L480 324v12h16v-16a8 8 0 0 0-3.2-6.4l-30-22.5-4.928-14.784A28.018 28.018 0 0 0 472 252v-12h24v-16Zm-16-12v40a12.013 12.013 0 0 1-12 12h-24a12.013 12.013 0 0 1-12-12v-40a12.013 12.013 0 0 1 12-12h24a12.013 12.013 0 0 1 12 12Zm-88.915-85.447-5.485 7.314a12 12 0 0 1-19.2 0l-5.485-7.314L341.766 112h20.468ZM328 44a12.013 12.013 0 0 1 12-12h24a12.013 12.013 0 0 1 12 12v40a12.013 12.013 0 0 1-12 12h-24a12.013 12.013 0 0 1-12-12Zm-33.367 109.627 30.973-15.486 3.994 5.325a28 28 0 0 0 44.8 0l3.994-5.325 30.973 15.486A11.936 11.936 0 0 1 416 164.361v19.924A28.043 28.043 0 0 0 392 212v12h-96v-12a27.906 27.906 0 0 0-8-19.577v-28.062a11.936 11.936 0 0 1 6.633-10.734ZM268 200a12.013 12.013 0 0 1 12 12v40a12.013 12.013 0 0 1-12 12h-24a12.013 12.013 0 0 1-12-12v-40a12.013 12.013 0 0 1 12-12Zm52 176H192v-43.639a11.936 11.936 0 0 1 6.633-10.734l30.973-15.486 3.994 5.325a28 28 0 0 0 44.8 0l3.994-5.325 30.973 15.486A11.936 11.936 0 0 1 320 332.361Zm-160 0v-43.639a27.847 27.847 0 0 0-15.478-25.044l-33.98-16.99-4.671-14.011A28.018 28.018 0 0 0 120 252v-12h96v12a28.018 28.018 0 0 0 14.129 24.316l-4.671 14.011-33.98 16.99A27.847 27.847 0 0 0 176 332.361V376Zm-64.915-81.447-5.485 7.314a12 12 0 0 1-19.2 0l-5.485-7.314L69.766 280h20.468ZM245.766 280h20.468l4.851 14.553-5.485 7.314a12 12 0 0 1-19.2 0l-5.485-7.314Zm-70.681-153.447-5.485 7.314a12 12 0 0 1-19.2 0l-5.485-7.314L149.766 112h20.468Zm-72.452 27.074 30.973-15.486 3.994 5.325a28 28 0 0 0 44.8 0l3.994-5.325 30.973 15.486A11.936 11.936 0 0 1 224 164.361v28.062A27.91 27.91 0 0 0 216 212v12h-96v-12a28.044 28.044 0 0 0-24-27.715v-19.924a11.936 11.936 0 0 1 6.633-10.734ZM56 212a12.013 12.013 0 0 1 12-12h24a12.013 12.013 0 0 1 12 12v40a12.013 12.013 0 0 1-12 12H68a12.013 12.013 0 0 1-12-12ZM32 324l22.4-16.8 3.2 4.266a28 28 0 0 0 44.8 0l3.994-5.325 30.973 15.486A11.936 11.936 0 0 1 144 332.361V376H32Zm448 68v16H32v-16Zm-112.522-84.683A27.847 27.847 0 0 0 352 332.361V376h-16v-43.639a27.847 27.847 0 0 0-15.478-25.044l-33.98-16.99-4.671-14.011A28.018 28.018 0 0 0 296 252v-12h96v12a28.018 28.018 0 0 0 14.129 24.316l-4.671 14.011Zm74.122-5.45a12 12 0 0 1-19.2 0l-5.485-7.314L421.766 280h20.468l4.851 14.553Z" data-original="#000000"/><path d="m330.53 472.411-72-24a7.992 7.992 0 0 0-5.06 0l-72 24A8 8 0 0 0 176 480v16h16v-10.234l64-21.333 64 21.333V496h16v-16a8 8 0 0 0-5.47-7.589ZM72 440h16v16H72zM424 440h16v16h-16z" data-original="#000000"/></g></svg>