<?xml version="1.0"?>
<svg xmlns="http://www.w3.org/2000/svg" xmlns:xlink="http://www.w3.org/1999/xlink" xmlns:svgjs="http://svgjs.com/svgjs" version="1.1" width="512" height="512" x="0" y="0" viewBox="0 0 512 512" style="enable-background:new 0 0 512 512" xml:space="preserve" class=""><g><g xmlns="http://www.w3.org/2000/svg"><path d="M472,224V212a28.032,28.032,0,0,0-28-28H432V164.361a27.847,27.847,0,0,0-15.478-25.044l-33.98-16.99-4.671-14.011A28.018,28.018,0,0,0,392,84V44a28.032,28.032,0,0,0-28-28H340a28.032,28.032,0,0,0-28,28V84a28.018,28.018,0,0,0,14.129,24.316l-4.671,14.011-33.98,16.99A27.847,27.847,0,0,0,272,164.361v19.924a28.224,28.224,0,0,0-4-.285H244a28.224,28.224,0,0,0-4,.285V164.361a27.847,27.847,0,0,0-15.478-25.044l-33.98-16.99-4.671-14.011A28.018,28.018,0,0,0,200,84V44a28.032,28.032,0,0,0-28-28H148a28.032,28.032,0,0,0-28,28V56h16V44a12.013,12.013,0,0,1,12-12h24a12.013,12.013,0,0,1,12,12V84a12.013,12.013,0,0,1-12,12H148a12.013,12.013,0,0,1-12-12V72H120V84a28.018,28.018,0,0,0,14.129,24.316l-4.671,14.011-33.98,16.99A27.847,27.847,0,0,0,80,164.361V184H68a28.032,28.032,0,0,0-28,28v12H16v16H40v12a28.018,28.018,0,0,0,14.129,24.316L49.2,291.1l-30,22.5A8,8,0,0,0,16,320v96a8,8,0,0,0,8,8H40v72H56V424H456v72h16V424h16a8,8,0,0,0,8-8V352H480v24H368V332.361a11.936,11.936,0,0,1,6.633-10.734l30.973-15.486,3.994,5.325a28,28,0,0,0,44.8,0l3.2-4.266L480,324v12h16V320a8,8,0,0,0-3.2-6.4l-30-22.5-4.928-14.784A28.018,28.018,0,0,0,472,252V240h24V224Zm-16-12v40a12.013,12.013,0,0,1-12,12H420a12.013,12.013,0,0,1-12-12V212a12.013,12.013,0,0,1,12-12h24A12.013,12.013,0,0,1,456,212Zm-88.915-85.447-5.485,7.314a12,12,0,0,1-19.2,0l-5.485-7.314L341.766,112h20.468ZM328,44a12.013,12.013,0,0,1,12-12h24a12.013,12.013,0,0,1,12,12V84a12.013,12.013,0,0,1-12,12H340a12.013,12.013,0,0,1-12-12ZM294.633,153.627l30.973-15.486,3.994,5.325a28,28,0,0,0,44.8,0l3.994-5.325,30.973,15.486A11.936,11.936,0,0,1,416,164.361v19.924A28.043,28.043,0,0,0,392,212v12H296V212a27.906,27.906,0,0,0-8-19.577V164.361A11.936,11.936,0,0,1,294.633,153.627ZM268,200a12.013,12.013,0,0,1,12,12v40a12.013,12.013,0,0,1-12,12H244a12.013,12.013,0,0,1-12-12V212a12.013,12.013,0,0,1,12-12Zm52,176H192V332.361a11.936,11.936,0,0,1,6.633-10.734l30.973-15.486,3.994,5.325a28,28,0,0,0,44.8,0l3.994-5.325,30.973,15.486A11.936,11.936,0,0,1,320,332.361Zm-160,0V332.361a27.847,27.847,0,0,0-15.478-25.044l-33.98-16.99-4.671-14.011A28.018,28.018,0,0,0,120,252V240h96v12a28.018,28.018,0,0,0,14.129,24.316l-4.671,14.011-33.98,16.99A27.847,27.847,0,0,0,176,332.361V376ZM95.085,294.553,89.6,301.867a12,12,0,0,1-19.2,0l-5.485-7.314L69.766,280H90.234ZM245.766,280h20.468l4.851,14.553-5.485,7.314a12,12,0,0,1-19.2,0l-5.485-7.314ZM175.085,126.553l-5.485,7.314a12,12,0,0,1-19.2,0l-5.485-7.314L149.766,112h20.468Zm-72.452,27.074,30.973-15.486,3.994,5.325a28,28,0,0,0,44.8,0l3.994-5.325,30.973,15.486A11.936,11.936,0,0,1,224,164.361v28.062A27.91,27.91,0,0,0,216,212v12H120V212a28.044,28.044,0,0,0-24-27.715V164.361A11.936,11.936,0,0,1,102.633,153.627ZM56,212a12.013,12.013,0,0,1,12-12H92a12.013,12.013,0,0,1,12,12v40a12.013,12.013,0,0,1-12,12H68a12.013,12.013,0,0,1-12-12ZM32,324l22.4-16.8,3.2,4.266a28,28,0,0,0,44.8,0l3.994-5.325,30.973,15.486A11.936,11.936,0,0,1,144,332.361V376H32Zm448,68v16H32V392ZM367.478,307.317A27.847,27.847,0,0,0,352,332.361V376H336V332.361a27.847,27.847,0,0,0-15.478-25.044l-33.98-16.99-4.671-14.011A28.018,28.018,0,0,0,296,252V240h96v12a28.018,28.018,0,0,0,14.129,24.316l-4.671,14.011Zm74.122-5.45a12,12,0,0,1-19.2,0l-5.485-7.314L421.766,280h20.468l4.851,14.553Z" fill="#ffffff" data-original="#000000" style="" class=""/><path d="M330.53,472.411l-72-24a7.992,7.992,0,0,0-5.06,0l-72,24A8,8,0,0,0,176,480v16h16V485.766l64-21.333,64,21.333V496h16V480A8,8,0,0,0,330.53,472.411Z" fill="#ffffff" data-original="#000000" style="" class=""/><rect x="72" y="440" width="16" height="16" fill="#ffffff" data-original="#000000" style="" class=""/><rect x="424" y="440" width="16" height="16" fill="#ffffff" data-original="#000000" style="" class=""/></g></g></svg>
