<?xml version="1.0"?>
<svg xmlns="http://www.w3.org/2000/svg" xmlns:xlink="http://www.w3.org/1999/xlink" xmlns:svgjs="http://svgjs.com/svgjs" version="1.1" width="512" height="512" x="0" y="0" viewBox="0 0 512 512" style="enable-background:new 0 0 512 512" xml:space="preserve" class=""><g><g xmlns="http://www.w3.org/2000/svg"><g><path d="m458.788 393.682c-16.601 0-30.105 13.505-30.105 30.106 0 16.6 13.505 30.105 30.105 30.105s30.106-13.505 30.106-30.105c.001-16.601-13.505-30.106-30.106-30.106zm0 45.211c-8.329 0-15.105-6.776-15.105-15.105 0-8.33 6.776-15.106 15.105-15.106 8.33 0 15.106 6.776 15.106 15.106.001 8.329-6.776 15.105-15.106 15.105z" fill="#ffffff" data-original="#000000" style="" class=""/><path d="m466.288 371.115v-96.987l23.178-32.234c1.643-2.284 1.869-5.296.585-7.8-1.283-2.504-3.86-4.079-6.674-4.079h-17.089v-90.763c25.801-3.657 45.712-25.878 45.712-52.673 0-29.341-23.871-53.211-53.212-53.211-25.608 0-47.046 18.185-52.087 42.319h-24.824v-31.361c0-6.684-5.438-12.121-12.121-12.121h-229.351c-6.684 0-12.121 5.438-12.121 12.121v31.361h-52c-16.876 0-30.606 13.73-30.606 30.606v103.763c-25.785 3.672-45.678 25.886-45.678 52.668 0 26.783 19.893 48.997 45.677 52.669v27.481l-23.172 32.226c-1.643 2.284-1.868 5.296-.585 7.8 1.284 2.504 3.861 4.079 6.674 4.079h17.083v18.729c0 16.876 13.73 30.606 30.606 30.606h52v31.36c0 6.684 5.438 12.122 12.121 12.122h31.596c4.142 0 7.5-3.358 7.5-7.5s-3.358-7.5-7.5-7.5h-28.716v-78.653h223.593v78.653h-159.877c-4.142 0-7.5 3.358-7.5 7.5s3.358 7.5 7.5 7.5h162.756c6.684 0 12.121-5.438 12.121-12.122v-31.36h25.202c5.649 23.315 26.683 40.687 51.709 40.687 29.341 0 53.212-23.871 53.212-53.211 0-26.797-19.911-49.018-45.712-52.675zm2.459-126.1-9.959 13.85-9.959-13.85zm-9.959-196.647c21.07 0 38.212 17.142 38.212 38.211 0 21.07-17.142 38.212-38.212 38.212s-38.212-17.142-38.212-38.212c0-21.069 17.142-38.211 38.212-38.211zm-415.563 323.61 9.959-13.85 9.958 13.85zm204.355-.837h-107.175c-6.684 0-12.121 5.438-12.121 12.121v38.05h-52c-8.605 0-15.606-7.001-15.606-15.606v-18.729h17.095c2.813 0 5.391-1.575 6.674-4.079s1.058-5.516-.585-7.8l-23.185-32.244v-27.435c17.394-2.414 32.451-13.195 40.35-29.337 1.82-3.72.28-8.212-3.44-10.033-3.719-1.819-8.211-.281-10.033 3.44-6.473 13.228-19.632 21.445-34.342 21.445-21.07 0-38.212-17.142-38.212-38.212s17.142-38.211 38.212-38.211c16.281 0 30.794 10.338 36.113 25.725 1.354 3.916 5.625 5.989 9.539 4.638 3.915-1.354 5.991-5.624 4.638-9.539-6.583-19.041-23.278-32.521-42.825-35.289v-103.753c0-8.605 7.001-15.606 15.606-15.606h52v38.05c0 6.684 5.438 12.121 12.121 12.121h107.176v46.592h-107.175c-6.684 0-12.121 5.438-12.121 12.121v115.629c0 6.684 5.438 12.122 12.121 12.122h107.175zm119.297-168.69v109.871h-223.593v-109.871zm38.762 218.862h-23.762v-38.05c0-6.684-5.438-12.121-12.121-12.121h-107.176v-43.819h107.176c6.684 0 12.121-5.438 12.121-12.122v-115.629c0-6.684-5.438-12.121-12.121-12.121h-107.176v-46.592h46.42c4.143 0 7.5-3.358 7.5-7.5s-3.357-7.5-7.5-7.5h-165.716v-78.654h223.593v78.653h-22.877c-4.143 0-7.5 3.358-7.5 7.5s3.357 7.5 7.5 7.5h25.756c6.684 0 12.121-5.438 12.121-12.121v-38.05h23.873c1.914 24.929 21.069 45.097 45.538 48.565v90.763h-17.089c-2.813 0-5.391 1.575-6.674 4.079-1.284 2.504-1.058 5.516.585 7.8l23.178 32.234v96.987c-25.002 3.543-44.467 24.52-45.649 50.198zm53.149 40.686c-21.07 0-38.212-17.142-38.212-38.211 0-21.07 17.142-38.212 38.212-38.212s38.212 17.142 38.212 38.212-17.142 38.211-38.212 38.211z" fill="#ffffff" data-original="#000000" style="" class=""/><path d="m458.788 116.685c16.601 0 30.106-13.505 30.106-30.105 0-16.601-13.506-30.106-30.106-30.106s-30.105 13.506-30.105 30.106 13.505 30.105 30.105 30.105zm0-45.212c8.33 0 15.106 6.777 15.106 15.106s-6.776 15.105-15.106 15.105c-8.329 0-15.105-6.776-15.105-15.105s6.776-15.106 15.105-15.106z" fill="#ffffff" data-original="#000000" style="" class=""/><path d="m53.212 232.618c-16.601 0-30.106 13.505-30.106 30.106s13.505 30.106 30.106 30.106 30.106-13.505 30.106-30.106-13.506-30.106-30.106-30.106zm0 45.212c-8.33 0-15.106-6.776-15.106-15.106s6.776-15.106 15.106-15.106 15.106 6.776 15.106 15.106-6.776 15.106-15.106 15.106z" fill="#ffffff" data-original="#000000" style="" class=""/><path d="m171.206 236.746h167.75c4.143 0 7.5-3.358 7.5-7.5s-3.357-7.5-7.5-7.5h-167.75c-4.142 0-7.5 3.358-7.5 7.5s3.357 7.5 7.5 7.5z" fill="#ffffff" data-original="#000000" style="" class=""/><path d="m171.206 264.886h167.75c4.143 0 7.5-3.358 7.5-7.5s-3.357-7.5-7.5-7.5h-167.75c-4.142 0-7.5 3.358-7.5 7.5s3.357 7.5 7.5 7.5z" fill="#ffffff" data-original="#000000" style="" class=""/><path d="m302.91 278.026h-95.659c-4.142 0-7.5 3.358-7.5 7.5s3.358 7.5 7.5 7.5h95.659c4.143 0 7.5-3.358 7.5-7.5s-3.357-7.5-7.5-7.5z" fill="#ffffff" data-original="#000000" style="" class=""/><path d="m346.455 71.622c0-4.142-3.357-7.5-7.5-7.5h-167.75c-4.142 0-7.5 3.358-7.5 7.5s3.358 7.5 7.5 7.5h167.75c4.143 0 7.5-3.358 7.5-7.5z" fill="#ffffff" data-original="#000000" style="" class=""/><path d="m300.521 92.262h-90.88c-4.142 0-7.5 3.358-7.5 7.5s3.358 7.5 7.5 7.5h90.88c4.143 0 7.5-3.358 7.5-7.5s-3.358-7.5-7.5-7.5z" fill="#ffffff" data-original="#000000" style="" class=""/><path d="m218.848 443.977v-36.188c0-5.79-4.71-10.5-10.5-10.5h-36.188c-5.79 0-10.5 4.71-10.5 10.5v36.188c0 5.79 4.71 10.5 10.5 10.5h36.188c5.79 0 10.5-4.711 10.5-10.5zm-15-4.5h-27.188v-27.188h27.188z" fill="#ffffff" data-original="#000000" style="" class=""/><path d="m241.189 419.491h99.812c4.143 0 7.5-3.358 7.5-7.5s-3.357-7.5-7.5-7.5h-99.812c-4.142 0-7.5 3.358-7.5 7.5s3.358 7.5 7.5 7.5z" fill="#ffffff" data-original="#000000" style="" class=""/><path d="m241.189 445.216h99.812c4.143 0 7.5-3.358 7.5-7.5s-3.357-7.5-7.5-7.5h-99.812c-4.142 0-7.5 3.358-7.5 7.5s3.358 7.5 7.5 7.5z" fill="#ffffff" data-original="#000000" style="" class=""/></g></g></g></svg>
