<?xml version="1.0"?>
<svg xmlns="http://www.w3.org/2000/svg" xmlns:xlink="http://www.w3.org/1999/xlink" xmlns:svgjs="http://svgjs.com/svgjs" version="1.1" width="512" height="512" x="0" y="0" viewBox="0 0 64 64" style="enable-background:new 0 0 512 512" xml:space="preserve" class=""><g><g xmlns="http://www.w3.org/2000/svg"><path d="m43 43c-3.86 0-7 3.141-7 7s3.14 7 7 7 7-3.141 7-7-3.14-7-7-7zm0 12c-2.757 0-5-2.243-5-5s2.243-5 5-5 5 2.243 5 5-2.243 5-5 5z" fill="#ffffff" data-original="#000000" style="" class=""/><path d="m31.517 34.285-1.561-2.006c.751-1.231 1.301-2.562 1.641-3.971l2.526-.316c.502-.062.877-.488.877-.992v-4c0-.504-.375-.93-.876-.992l-2.526-.316c-.34-1.409-.89-2.739-1.641-3.971l1.561-2.006c.31-.398.275-.965-.082-1.321l-2.829-2.828c-.356-.356-.924-.393-1.321-.082l-2.006 1.56c-1.232-.751-2.562-1.301-3.971-1.641l-.316-2.526c-.063-.501-.489-.877-.993-.877h-4c-.504 0-.93.376-.992.876l-.316 2.526c-1.409.34-2.739.89-3.971 1.641l-2.006-1.56c-.397-.311-.964-.274-1.321.082l-2.829 2.828c-.357.356-.392.923-.082 1.321l1.561 2.006c-.751 1.231-1.301 2.562-1.641 3.971l-2.526.316c-.502.063-.877.489-.877.993v4c0 .504.375.93.876.992l2.526.316c.34 1.409.89 2.739 1.641 3.971l-1.561 2.006c-.31.398-.275.965.082 1.321l2.829 2.828c.356.356.923.394 1.321.082l2.006-1.56c1.231.751 2.562 1.301 3.972 1.641l.316 2.526c.062.501.488.877.992.877h4c.504 0 .93-.376.992-.876l.316-2.526c1.41-.34 2.741-.89 3.972-1.641l2.006 1.56c.397.312.964.274 1.321-.082l2.829-2.828c.356-.357.391-.923.081-1.322zm-3.575-1.338 1.454 1.869-1.58 1.58-1.87-1.454c-.343-.269-.821-.283-1.179-.036-1.371.939-2.901 1.571-4.548 1.879-.427.08-.754.428-.808.859l-.294 2.356h-2.234l-.294-2.355c-.054-.432-.381-.779-.808-.859-1.647-.308-3.178-.939-4.548-1.879-.358-.246-.835-.231-1.179.036l-1.87 1.454-1.58-1.58 1.454-1.869c.267-.344.282-.82.036-1.179-.939-1.372-1.571-2.902-1.88-4.549-.08-.427-.427-.754-.859-.808l-2.355-.295v-2.234l2.355-.295c.432-.054.779-.381.859-.808.309-1.646.941-3.177 1.88-4.549.246-.358.231-.835-.036-1.179l-1.454-1.869 1.58-1.58 1.87 1.454c.342.269.819.282 1.179.036 1.373-.939 2.903-1.571 4.548-1.879.427-.08.754-.428.808-.859l.294-2.355h2.234l.294 2.355c.054.432.381.779.808.859 1.646.308 3.176.939 4.548 1.879.359.246.835.232 1.179-.036l1.87-1.454 1.58 1.58-1.454 1.869c-.267.344-.282.82-.036 1.179.939 1.372 1.571 2.902 1.88 4.549.08.427.427.754.859.808l2.355.295v2.234l-2.355.295c-.432.054-.779.381-.859.808-.309 1.646-.941 3.177-1.88 4.549-.245.358-.231.835.036 1.178z" fill="#ffffff" data-original="#000000" style="" class=""/><path d="m18 15c-5.514 0-10 4.486-10 10s4.486 10 10 10 10-4.486 10-10-4.486-10-10-10zm0 18c-4.411 0-8-3.589-8-8s3.589-8 8-8 8 3.589 8 8-3.589 8-8 8z" fill="#ffffff" data-original="#000000" style="" class=""/><path d="m55 47h-1.415c-.233-.822-.561-1.611-.981-2.361l1.003-1.003c.391-.391.391-1.023 0-1.414l-2.828-2.828c-.391-.391-1.023-.391-1.414 0l-1.003 1.003c-.75-.42-1.539-.749-2.361-.981v-1.416c0-.553-.448-1-1-1h-4c-.552 0-1 .447-1 1v1.415c-.822.232-1.611.562-2.361.981l-1.003-1.003c-.391-.391-1.023-.391-1.414 0l-2.828 2.828c-.391.391-.391 1.023 0 1.414l1.003 1.003c-.42.75-.749 1.539-.981 2.361h-1.417c-.552 0-1 .447-1 1v4c0 .553.448 1 1 1h1.415c.233.822.561 1.611.981 2.361l-1.003 1.003c-.391.391-.391 1.023 0 1.414l2.828 2.828c.391.391 1.023.391 1.414 0l1.003-1.003c.75.42 1.539.749 2.361.981v1.417c0 .553.448 1 1 1h4c.552 0 1-.447 1-1v-1.415c.822-.232 1.611-.562 2.361-.981l1.003 1.003c.391.391 1.023.391 1.414 0l2.828-2.828c.391-.391.391-1.023 0-1.414l-1.003-1.003c.42-.75.749-1.539.981-2.361h1.417c.552 0 1-.447 1-1v-4c0-.554-.448-1.001-1-1.001zm-1 4h-1.201c-.476 0-.885.335-.98.801-.229 1.127-.67 2.189-1.312 3.158-.263.396-.21.924.126 1.26l.852.853-1.414 1.414-.853-.853c-.336-.337-.863-.39-1.259-.127-.97.644-2.033 1.085-3.158 1.312-.466.095-.801.505-.801.981v1.201h-2v-1.201c0-.476-.335-.886-.801-.98-1.125-.228-2.188-.669-3.158-1.312-.396-.263-.923-.21-1.259.127l-.853.853-1.414-1.414.852-.853c.336-.336.389-.863.126-1.26-.642-.969-1.083-2.031-1.312-3.158-.095-.467-.505-.802-.98-.802h-1.201v-2h1.201c.476 0 .885-.335.98-.801.229-1.127.67-2.189 1.312-3.158.263-.396.21-.924-.126-1.26l-.852-.853 1.414-1.414.853.853c.336.337.863.389 1.259.127.97-.644 2.033-1.085 3.158-1.312.466-.095.801-.505.801-.981v-1.201h2v1.201c0 .476.335.886.801.98 1.125.228 2.188.669 3.158 1.312.396.262.923.21 1.259-.127l.853-.853 1.414 1.414-.852.853c-.336.336-.389.863-.126 1.26.642.969 1.083 2.031 1.312 3.158.095.467.505.802.98.802h1.201z" fill="#ffffff" data-original="#000000" style="" class=""/><path d="m50 7c-3.86 0-7 3.141-7 7s3.14 7 7 7 7-3.141 7-7-3.14-7-7-7zm0 12c-2.757 0-5-2.243-5-5s2.243-5 5-5 5 2.243 5 5-2.243 5-5 5z" fill="#ffffff" data-original="#000000" style="" class=""/><path d="m62 11h-1.415c-.233-.822-.561-1.611-.981-2.361l1.003-1.003c.391-.391.391-1.023 0-1.414l-2.828-2.828c-.391-.391-1.023-.391-1.414 0l-1.003 1.003c-.75-.42-1.539-.749-2.361-.981v-1.416c0-.553-.448-1-1-1h-4c-.552 0-1 .447-1 1v1.415c-.822.232-1.611.562-2.361.981l-1.003-1.003c-.391-.391-1.023-.391-1.414 0l-2.828 2.828c-.391.391-.391 1.023 0 1.414l1.003 1.003c-.42.75-.749 1.539-.981 2.361h-1.417c-.552 0-1 .447-1 1v4c0 .553.448 1 1 1h1.415c.233.822.561 1.611.981 2.361l-1.003 1.003c-.391.391-.391 1.023 0 1.414l2.828 2.828c.391.391 1.023.391 1.414 0l1.003-1.003c.75.42 1.539.749 2.361.981v1.417c0 .553.448 1 1 1h4c.552 0 1-.447 1-1v-1.415c.822-.232 1.611-.562 2.361-.981l1.003 1.003c.391.391 1.023.391 1.414 0l2.828-2.828c.391-.391.391-1.023 0-1.414l-1.003-1.003c.42-.75.749-1.539.981-2.361h1.417c.552 0 1-.447 1-1v-4c0-.554-.448-1.001-1-1.001zm-1 4h-1.201c-.476 0-.885.335-.98.801-.229 1.127-.67 2.189-1.312 3.158-.263.396-.21.924.126 1.26l.852.853-1.414 1.414-.853-.853c-.336-.337-.862-.389-1.259-.127-.97.644-2.033 1.085-3.158 1.312-.466.095-.801.505-.801.981v1.201h-2v-1.201c0-.476-.335-.886-.801-.98-1.125-.228-2.188-.669-3.158-1.312-.396-.262-.923-.21-1.259.127l-.853.853-1.414-1.414.852-.853c.336-.336.389-.863.126-1.26-.642-.969-1.083-2.031-1.312-3.158-.095-.467-.505-.802-.98-.802h-1.201v-2h1.201c.476 0 .885-.335.98-.801.229-1.127.67-2.189 1.312-3.158.263-.396.21-.924-.126-1.26l-.852-.853 1.414-1.414.853.853c.336.337.863.39 1.259.127.97-.644 2.033-1.085 3.158-1.312.466-.095.801-.505.801-.981v-1.201h2v1.201c0 .476.335.886.801.98 1.125.228 2.188.669 3.158 1.312.397.263.923.21 1.259-.127l.853-.853 1.414 1.414-.852.853c-.336.336-.389.863-.126 1.26.642.969 1.083 2.031 1.312 3.158.095.467.505.802.98.802h1.201z" fill="#ffffff" data-original="#000000" style="" class=""/></g></g></svg>
