<?xml version="1.0"?>
<svg xmlns="http://www.w3.org/2000/svg" xmlns:xlink="http://www.w3.org/1999/xlink" xmlns:svgjs="http://svgjs.com/svgjs" version="1.1" width="512" height="512" x="0" y="0" viewBox="0 0 512 512" style="enable-background:new 0 0 512 512" xml:space="preserve" class=""><g><g xmlns="http://www.w3.org/2000/svg"><path d="m356 300h-50v-15.204c24.103-16.165 40-43.658 40-74.796v-113.07l40-15v128.07c0 5.523 4.478 10 10 10s10-4.477 10-10v-135.57l13.512-5.067c3.998-1.5 6.604-5.374 6.484-9.643-.119-4.269-2.937-7.991-7.014-9.266l-160-50c-1.942-.607-4.023-.607-5.966 0l-160 50c-4.076 1.274-6.894 4.996-7.013 9.266-.119 4.269 2.486 8.143 6.485 9.643l73.512 27.567v113.07c0 31.138 15.897 58.631 40 74.796v15.204h-50c-49.616 0-90 40.387-90 90v112c0 5.523 4.477 10 10 10h360c5.522 0 10-4.477 10-10v-112c0-49.618-40.39-90-90-90zm-170-208.315c5.15-4.293 29.669-11.685 70-11.685s64.85 7.392 70 11.685v28.315h-140zm70-71.208 129.227 40.383-44.996 16.873c-17.847-16.731-71.74-17.733-84.231-17.733s-66.385 1.002-84.231 17.733l-44.996-16.873zm-70 189.523v-70h140v70c0 38.598-31.402 70-70 70s-70-31.402-70-70zm70 90c10.515 0 20.612-1.819 30-5.148v11.005l-30 30-30-30v-11.005c9.388 3.329 19.485 5.148 30 5.148zm-44.142 20 37.071 37.071c1.953 1.953 4.512 2.929 7.071 2.929s5.119-.976 7.071-2.929l37.071-37.071h55.858c13.658 0 26.405 3.947 37.188 10.738-23.844 53.696-78.014 89.262-137.188 89.262s-113.345-35.567-137.188-89.263c10.784-6.791 23.53-10.737 37.188-10.737zm-5.858 112.534c16.049 4.928 32.856 7.467 50 7.467s33.951-2.538 50-7.467v59.466h-100zm-120-42.534c0-17.467 6.446-33.447 17.064-45.723 6.177 12.729 13.866 24.583 22.936 35.324v112.399h-40zm340 102h-40v-112.399c9.071-10.741 16.759-22.595 22.936-35.324 10.618 12.276 17.064 28.256 17.064 45.723z" fill="#ffffff" data-original="#000000" style=""/><circle cx="216" cy="170" r="10" fill="#ffffff" data-original="#000000" style=""/><circle cx="296" cy="170" r="10" fill="#ffffff" data-original="#000000" style=""/><path d="m230.993 233.305c7.572 4.38 16.219 6.695 25.007 6.695s17.436-2.315 25.007-6.695c4.781-2.765 6.415-8.883 3.649-13.663s-8.883-6.414-13.664-3.649c-4.531 2.621-9.716 4.007-14.992 4.007s-10.461-1.386-14.993-4.007c-4.779-2.765-10.897-1.132-13.664 3.649-2.764 4.78-1.131 10.897 3.65 13.663z" fill="#ffffff" data-original="#000000" style=""/></g></g></svg>
