<?xml version="1.0"?>
<svg xmlns="http://www.w3.org/2000/svg" xmlns:xlink="http://www.w3.org/1999/xlink" xmlns:svgjs="http://svgjs.com/svgjs" version="1.1" width="512" height="512" x="0" y="0" viewBox="0 0 512 512" style="enable-background:new 0 0 512 512" xml:space="preserve" class=""><g><g xmlns="http://www.w3.org/2000/svg" id="Out_line" data-name="Out line"><path d="M100,156A60,60,0,1,0,40,96,60.06812,60.06812,0,0,0,100,156ZM66.19385,135.4624,100,101.65625l33.80615,33.80615a51.84594,51.84594,0,0,1-67.6123,0ZM96,86.34375,66.19385,56.5376A51.75989,51.75989,0,0,1,96,44.16919ZM152,96a51.76071,51.76071,0,0,1-12.5376,33.80615L104,94.34277V44.16919A52.058,52.058,0,0,1,152,96ZM60.5376,62.19385,94.34277,96,60.5376,129.80615a51.84594,51.84594,0,0,1,0-67.6123Z" fill="#ffffff" data-original="#000000" style=""/><path d="M364,156h96a12,12,0,0,0,0-24H364a12,12,0,0,0,0,24Zm0-16h96a4,4,0,0,1,0,8H364a4,4,0,0,1,0-8Z" fill="#ffffff" data-original="#000000" style=""/><path d="M364,124h8a12.01312,12.01312,0,0,0,12-12V88a12.01312,12.01312,0,0,0-12-12h-8a12.01312,12.01312,0,0,0-12,12v24A12.01312,12.01312,0,0,0,364,124Zm-4-36a4.004,4.004,0,0,1,4-4h8a4.004,4.004,0,0,1,4,4v24a4.004,4.004,0,0,1-4,4h-8a4.004,4.004,0,0,1-4-4Z" fill="#ffffff" data-original="#000000" style=""/><path d="M404,124h8a12.01312,12.01312,0,0,0,12-12V72a12.01312,12.01312,0,0,0-12-12h-8a12.01312,12.01312,0,0,0-12,12v40A12.01312,12.01312,0,0,0,404,124Zm-4-52a4.004,4.004,0,0,1,4-4h8a4.004,4.004,0,0,1,4,4v40a4.004,4.004,0,0,1-4,4h-8a4.004,4.004,0,0,1-4-4Z" fill="#ffffff" data-original="#000000" style=""/><path d="M444,124h8a12.01312,12.01312,0,0,0,12-12V48a12.01312,12.01312,0,0,0-12-12h-8a12.01312,12.01312,0,0,0-12,12v64A12.01312,12.01312,0,0,0,444,124Zm-4-76a4.004,4.004,0,0,1,4-4h8a4.004,4.004,0,0,1,4,4v64a4.004,4.004,0,0,1-4,4h-8a4.004,4.004,0,0,1-4-4Z" fill="#ffffff" data-original="#000000" style=""/><path d="M56,372H80a4,4,0,0,0,0-8H56a4,4,0,0,0,0,8Z" fill="#ffffff" data-original="#000000" style=""/><path d="M160,364H104a4,4,0,0,0,0,8h56a4,4,0,0,0,0-8Z" fill="#ffffff" data-original="#000000" style=""/><path d="M40,396h64a4,4,0,0,0,0-8H40a4,4,0,0,0,0,8Z" fill="#ffffff" data-original="#000000" style=""/><path d="M160,388H128a4,4,0,0,0,0,8h32a4,4,0,0,0,0-8Z" fill="#ffffff" data-original="#000000" style=""/><path d="M40,420H64a4,4,0,0,0,0-8H40a4,4,0,0,0,0,8Z" fill="#ffffff" data-original="#000000" style=""/><path d="M84,416a4.0002,4.0002,0,0,0,4,4h32a4,4,0,0,0,0-8H88A4.0002,4.0002,0,0,0,84,416Z" fill="#ffffff" data-original="#000000" style=""/><path d="M160,412H144a4,4,0,0,0,0,8h16a4,4,0,0,0,0-8Z" fill="#ffffff" data-original="#000000" style=""/><path d="M40,444H88a4,4,0,0,0,0-8H40a4,4,0,0,0,0,8Z" fill="#ffffff" data-original="#000000" style=""/><path d="M160,436H112a4,4,0,0,0,0,8h48a4,4,0,0,0,0-8Z" fill="#ffffff" data-original="#000000" style=""/><path d="M112,460H40a4,4,0,0,0,0,8h72a4,4,0,0,0,0-8Z" fill="#ffffff" data-original="#000000" style=""/><path d="M468,380H437.65723A7.99953,7.99953,0,0,0,432,393.65625L434.34375,396,420,410.34277l-9.8584-9.85742a19.99978,19.99978,0,0,0-28.2832,0L356,426.34375a7.99945,7.99945,0,0,0,0,11.3125L366.34375,448a8.00653,8.00653,0,0,0,11.3125,0L396,429.65723l9.8584,9.85742a20.01985,20.01985,0,0,0,28.2832,0L456,417.65625,458.34375,420A7.99953,7.99953,0,0,0,472,414.34277V384A4.0002,4.0002,0,0,0,468,380Zm-4,34.34375L461.65625,412a8.00771,8.00771,0,0,0-11.3125,0l-21.8584,21.8584a12.0157,12.0157,0,0,1-16.9707,0l-12.68653-12.68652a3.99853,3.99853,0,0,0-5.65624,0L372,442.34375,361.65625,432l25.8584-25.8584a12.01451,12.01451,0,0,1,16.9707,0l12.68653,12.68652a3.99853,3.99853,0,0,0,5.65624,0L440,401.65625a8.00771,8.00771,0,0,0,0-11.3125L437.65723,388H464Z" fill="#ffffff" data-original="#000000" style=""/><path d="M496,152V40a24.02734,24.02734,0,0,0-24-24H352a24.02734,24.02734,0,0,0-24,24v68.68628l-2.95068,2.95093A157.894,157.894,0,0,0,272,96.79028V88a16,16,0,0,0-32,0v8.79028a157.896,157.896,0,0,0-53.04907,14.84693L184,108.68628V40a24.02719,24.02719,0,0,0-24-24H40A24.02719,24.02719,0,0,0,16,40V152a24.02719,24.02719,0,0,0,24,24h77.40747a159.214,159.214,0,0,0-20.614,64H88a16,16,0,0,0,0,32h8.79346a159.23755,159.23755,0,0,0,20.61377,64H40a24.02734,24.02734,0,0,0-24,24V472a24.02734,24.02734,0,0,0,24,24H160a24.02734,24.02734,0,0,0,24-24V403.31348l2.95093-2.95069A157.89616,157.89616,0,0,0,240,415.21V424a16,16,0,0,0,32,0v-8.79a157.89434,157.89434,0,0,0,53.04932-14.84717L328,403.31348V472a24.0275,24.0275,0,0,0,24,24H472a24.0275,24.0275,0,0,0,24-24V360a24.0275,24.0275,0,0,0-24-24H394.59277a159.20738,159.20738,0,0,0,20.61377-64H424a16,16,0,0,0,0-32h-8.79346a159.20862,159.20862,0,0,0-20.61377-64H472A24.02734,24.02734,0,0,0,496,152ZM424,260H376a4,4,0,0,1,0-8h48a4,4,0,0,1,0,8Zm48,224H352a12.01312,12.01312,0,0,1-12-12V400a4.00049,4.00049,0,0,0-1.17188-2.82812L305.65723,364H336a4.0002,4.0002,0,0,0,4-4,12.01312,12.01312,0,0,1,12-12H472a12.01312,12.01312,0,0,1,12,12V472A12.01312,12.01312,0,0,1,472,484Zm-312,0H40a12.01312,12.01312,0,0,1-12-12V360a12.01312,12.01312,0,0,1,12-12H160a12.01312,12.01312,0,0,1,12,12,4.0002,4.0002,0,0,0,4,4h30.34277l-33.17089,33.17188A4.00049,4.00049,0,0,0,172,400v72A12.01312,12.01312,0,0,1,160,484ZM88,252h48a4,4,0,0,1,0,8H88a4,4,0,0,1,0-8ZM40,28H160a12.01312,12.01312,0,0,1,12,12v72a4.00049,4.00049,0,0,0,1.17188,2.82812L206.34277,148H176a4.0002,4.0002,0,0,0-4,4,12.01312,12.01312,0,0,1-12,12H40a12.01312,12.01312,0,0,1-12-12V40A12.01312,12.01312,0,0,1,40,28Zm312,0H472a12.01312,12.01312,0,0,1,12,12V152a12.01312,12.01312,0,0,1-12,12H352a12.01312,12.01312,0,0,1-12-12,4.0002,4.0002,0,0,0-4-4H305.65723l33.17089-33.17188A4.00049,4.00049,0,0,0,340,112V40A12.01312,12.01312,0,0,1,352,28Zm43.45947,216A138.32293,138.32293,0,0,0,367.979,172h9.8628A147.24941,147.24941,0,0,1,403.502,244ZM268,108.48389A146.10163,146.10163,0,0,1,319.875,122.468l-6.019,6.01928A138.58593,138.58593,0,0,0,268,116.519ZM268,136V124.554a130.61736,130.61736,0,0,1,39.7876,10.002l-14.61572,14.616A3.99988,3.99988,0,0,0,296,156h36.40137A20.03688,20.03688,0,0,0,352,172h5.79443A130.53757,130.53757,0,0,1,387.437,244H376a12,12,0,0,0,0,24h11.43652a130.54,130.54,0,0,1-29.6416,72H352a20.03688,20.03688,0,0,0-19.59863,16H313.65625l-37.85742-37.85742A27.86778,27.86778,0,0,0,268,312.646V252h8v20a12.01312,12.01312,0,0,0,12,12h48a3.99988,3.99988,0,0,0,2.82812-6.82812L309.65723,248l29.17089-29.17188A3.99988,3.99988,0,0,0,336,212H300V192a12.01312,12.01312,0,0,0-12-12H268V168a12,12,0,0,0-24,0v12.7a12.00945,12.00945,0,0,0-8,11.3v48a12.00945,12.00945,0,0,0,8,11.3v61.346a27.86433,27.86433,0,0,0-7.79883,5.49658L198.34375,356H179.59863A20.03688,20.03688,0,0,0,160,340h-5.79443a130.53837,130.53837,0,0,1-29.64234-72H136a12,12,0,0,0,0-24H124.56323a130.53814,130.53814,0,0,1,29.64282-72H160a20.03688,20.03688,0,0,0,19.59863-16H216a3.99988,3.99988,0,0,0,2.82812-6.82812l-14.61523-14.61573A130.61114,130.61114,0,0,1,244,124.554V136a12,12,0,0,0,24,0Zm99.979,204a138.33167,138.33167,0,0,0,27.48047-72h8.043a147.26237,147.26237,0,0,1-25.65967,72ZM260,180h-8V168a4,4,0,0,1,8,0Zm-12,8h40a4,4,0,0,1,0,8,12.01312,12.01312,0,0,0-12,12v36H248a4.004,4.004,0,0,1-4-4V192A4.004,4.004,0,0,1,248,188Zm53.17188,62.82812L326.34277,276H288a4.004,4.004,0,0,1-4-4V219.31445A11.93721,11.93721,0,0,0,288,220h38.34277l-25.17089,25.17188A3.99853,3.99853,0,0,0,301.17188,250.82812ZM288,212a4,4,0,0,1,0-8,11.92064,11.92064,0,0,0,4-.7V212Zm-36,40h8v58.23926a28.25684,28.25684,0,0,0-8,0Zm18.14258,71.79883,19.04834,19.04834-4.63623-1.54541a8.03887,8.03887,0,0,0-9.68457,4.01172l-3.96582,7.93457-9.248-9.248a7.99945,7.99945,0,0,0-11.3125,0l-9.24707,9.24707-3.96777-7.93457a8.03987,8.03987,0,0,0-9.68457-4.01074l-4.63477,1.54492,19.04785-19.04785A20.02576,20.02576,0,0,1,270.14258,323.79883ZM134.1582,340a147.2436,147.2436,0,0,1-25.6604-72h8.043a138.31967,138.31967,0,0,0,27.48047,72ZM144.022,172a138.323,138.323,0,0,0-27.4812,72h-8.04321a147.25917,147.25917,0,0,1,25.66015-72ZM244,116.519a138.58268,138.58268,0,0,0-45.85547,11.96875L192.125,122.468A146.09887,146.09887,0,0,1,244,108.48389ZM260,136a4,4,0,0,1-8,0V88a4,4,0,0,1,8,0ZM244,403.51611a146.12756,146.12756,0,0,1-51.87524-13.98388l6.01928-6.01953A138.61177,138.61177,0,0,0,244,395.481ZM244,376v11.44629a130.63167,130.63167,0,0,1-39.78784-10.00195l14.616-14.61622A3.99988,3.99988,0,0,0,216,356h-6.34375l.50342-.50342,19.814-6.605,3.9668,7.93262A7.99948,7.99948,0,0,0,246.752,358.9043L256,349.65625l9.248,9.248a8.019,8.019,0,0,0,5.66308,2.34277,7.91874,7.91874,0,0,0,1.27539-.10352,8.01718,8.01718,0,0,0,5.87305-4.31835l3.9668-7.9336,19.814,6.605.50342.50342H296a3.99988,3.99988,0,0,0-2.82812,6.82812l14.61523,14.61573A130.61518,130.61518,0,0,1,268,387.44629V376a12,12,0,0,0-24,0Zm24,19.481a138.575,138.575,0,0,0,45.85547-11.96875l6.01953,6.02A146.125,146.125,0,0,1,268,403.51611ZM252,376a4,4,0,0,1,8,0v48a4,4,0,0,1-8,0Z" fill="#ffffff" data-original="#000000" style=""/></g></g></svg>
