<?xml version="1.0"?>
<svg xmlns="http://www.w3.org/2000/svg" xmlns:xlink="http://www.w3.org/1999/xlink" xmlns:svgjs="http://svgjs.com/svgjs" version="1.1" width="512" height="512" x="0" y="0" viewBox="0 0 209.524 209.524" style="enable-background:new 0 0 512 512" xml:space="preserve" class=""><g><path xmlns="http://www.w3.org/2000/svg" d="m206.031 188.568h-3.492v-10.476c0-1.928-1.564-3.492-3.492-3.492h-3.492v-10.476c0-1.928-1.564-3.492-3.492-3.492h-3.75l-6.446-83.805h3.213c1.928 0 3.492-1.564 3.492-3.492v-10.475h3.492c1.928 0 3.492-1.564 3.492-3.492v-10.475h10.476c1.666 0 3.101-1.177 3.426-2.811s-.552-3.272-2.092-3.907l-101.265-41.903c-.856-.356-1.816-.356-2.671 0l-101.265 41.902c-1.54.636-2.413 2.273-2.088 3.907s1.753 2.811 3.419 2.811h10.476v10.476c0 1.928 1.564 3.492 3.492 3.492h3.492v10.476c0 1.928 1.564 3.492 3.492 3.492h3.213l-6.446 83.805h-3.754c-1.928 0-3.492 1.564-3.492 3.492v10.475h-3.492c-1.928 0-3.492 1.564-3.492 3.492v10.476h-3.493c-1.928 0-3.492 1.564-3.492 3.492v13.968c0 1.928 1.564 3.492 3.492 3.492h202.529c1.928 0 3.492-1.564 3.492-3.492v-13.968c.01-1.928-1.554-3.492-3.482-3.492zm-17.459-13.968h-34.919v-6.984h3.492 27.935 3.492zm-59.362 0v-10.476c0-1.928-1.564-3.492-3.492-3.492h-3.75l-6.446-83.805h3.213c1.928 0 3.492-1.564 3.492-3.492v-10.475h31.427v10.476c0 1.928 1.564 3.492 3.492 3.492h3.213l-6.446 83.805h-3.75c-1.928 0-3.492 1.564-3.492 3.492v10.475zm-66.346 0v-10.476c0-1.928-1.564-3.492-3.492-3.492h-3.75l-6.446-83.805h3.213c1.928 0 3.492-1.564 3.492-3.492v-10.475h31.427v10.476c0 1.928 1.564 3.492 3.492 3.492h3.213l-6.446 83.805h-3.75c-1.928 0-3.492 1.564-3.492 3.492v10.475zm52.378-104.756h-3.492-13.967-3.492v-6.984h20.951zm-27.935 97.773h3.492 27.935 3.492v6.984h-34.919c0-.001 0-6.984 0-6.984zm94.281-97.773h-3.492-13.967-3.492v-6.984h20.951zm-76.821-62.567 83.693 34.632h-167.387zm-55.87 55.583v6.984h-3.492-13.968-3.492v-6.984zm-27.935 104.757h3.492 27.935 3.492v6.984h-34.919c0-.001 0-6.984 0-6.984zm181.577 34.918h-195.545v-6.984h3.492 188.561 3.492z" fill="#ffffff" data-original="#000000" style="" class=""/></g></svg>
